<svg width="64" height="64" viewBox="0 0 64 64" fill="none" xmlns="http://www.w3.org/2000/svg">
<path d="M59.5264 31.9995C59.5264 47.2021 47.2021 59.5264 31.9995 59.5264C16.7969 59.5264 4.47266 47.2021 4.47266 31.9995C4.47266 16.7969 16.7969 4.47266 31.9995 4.47266C47.2021 4.47266 59.5264 16.7969 59.5264 31.9995Z" fill="#64748b"/>
<path d="M41.5541 29.8761C40.8231 29.8761 40.2451 29.2811 40.2451 28.5671C40.2451 27.9381 39.6161 26.6291 38.5621 25.4901C37.525 24.3851 36.386 23.7391 35.434 23.7391C34.703 23.7391 34.125 23.1441 34.125 22.4301C34.125 21.7161 34.72 21.1211 35.434 21.1211C37.134 21.1211 38.9191 22.0391 40.4831 23.6881C41.9451 25.2351 42.8801 27.1561 42.8801 28.5501C42.8801 29.2811 42.2851 29.8761 41.5541 29.8761Z" fill="#f1f5f9"/>
<path d="M47.6937 29.875C46.9627 29.875 46.3847 29.28 46.3847 28.566C46.3847 22.531 41.4716 17.635 35.4535 17.635C34.7225 17.635 34.1445 17.04 34.1445 16.326C34.1445 15.612 34.7225 15 35.4365 15C42.9167 15 49.0027 21.086 49.0027 28.566C49.0027 29.28 48.4077 29.875 47.6937 29.875Z" fill="#f1f5f9"/>
<path d="M31.6432 35.757L26.0842 41.316C25.4721 40.772 24.8771 40.211 24.2991 39.633C22.5481 37.865 20.9671 36.012 19.5561 34.074C18.162 32.136 17.04 30.198 16.224 28.277C15.408 26.339 15 24.486 15 22.718C15 21.562 15.204 20.457 15.612 19.437C16.02 18.4 16.666 17.448 17.567 16.598C18.655 15.527 19.8451 15 21.1031 15C21.5791 15 22.0551 15.102 22.4801 15.306C22.9221 15.51 23.3131 15.816 23.6191 16.258L27.5632 21.817C27.8692 22.242 28.0902 22.633 28.2432 23.007C28.3962 23.364 28.4812 23.721 28.4812 24.044C28.4812 24.452 28.3622 24.86 28.1242 25.251C27.9032 25.642 27.5802 26.05 27.1722 26.458L25.8801 27.801C25.6931 27.988 25.6081 28.209 25.6081 28.481C25.6081 28.617 25.6251 28.736 25.6591 28.872C25.7101 29.008 25.7611 29.11 25.7951 29.212C26.1012 29.773 26.6282 30.504 27.3762 31.388C28.1412 32.272 28.9572 33.173 29.8412 34.074C30.4532 34.669 31.0482 35.247 31.6432 35.757Z" fill="#f1f5f9"/>
<path d="M48.9472 42.7618C48.9472 43.2378 48.8622 43.7308 48.6922 44.2068C48.6412 44.3428 48.5902 44.4788 48.5222 44.6148C48.2332 45.2268 47.8592 45.8048 47.3662 46.3488C46.5332 47.2668 45.6152 47.9298 44.5782 48.3548C44.5612 48.3548 44.5442 48.3718 44.5272 48.3718C43.5242 48.7798 42.4361 49.0008 41.2631 49.0008C39.5291 49.0008 37.6761 48.5928 35.7211 47.7598C33.766 46.9268 31.811 45.8048 29.873 44.3938C29.21 43.9008 28.547 43.4078 27.918 42.8808L33.477 37.3218C33.953 37.6788 34.378 37.9508 34.735 38.1378C34.82 38.1718 34.922 38.2228 35.041 38.2738C35.1771 38.3248 35.3131 38.3418 35.4661 38.3418C35.7551 38.3418 35.9761 38.2398 36.1631 38.0528L37.4551 36.7778C37.8801 36.3528 38.2881 36.0298 38.6791 35.8258C39.0701 35.5878 39.4611 35.4688 39.8861 35.4688C40.2091 35.4688 40.5491 35.5368 40.9231 35.6898C41.2971 35.8428 41.6881 36.0638 42.1131 36.3528L47.7402 40.3478C48.1822 40.6538 48.4882 41.0108 48.6752 41.4358C48.8452 41.8608 48.9472 42.2858 48.9472 42.7618Z" fill="#f1f5f9"/>
</svg>
