<svg width="64" height="64" viewBox="0 0 64 64" fill="none" xmlns="http://www.w3.org/2000/svg">
    <circle cx="32" cy="32" r="27" fill="url(#paint0_radial_823_171)"/>
    <g transform="translate(10 9) scale(1.9)">
        <path stroke="#B7D5E5" stroke-width="2" stroke-linecap="round" stroke-linejoin="round" d="M6 6.878V6a2.25 2.25 0 0 1 2.25-2.25h7.5A2.25 2.25 0 0 1 18 6v.878m-12 0c.235-.083.487-.128.75-.128h10.5c.263 0 .515.045.75.128m-12 0A2.25 2.25 0 0 0 4.5 9v.878m13.5-3A2.25 2.25 0 0 1 19.5 9v.878m0 0a2.246 2.246 0 0 0-.75-.128H5.25c-.263 0-.515.045-.75.128m15 0A2.25 2.25 0 0 1 21 12v6a2.25 2.25 0 0 1-2.25 2.25H5.25A2.25 2.25 0 0 1 3 18v-6c0-.98.626-1.813 1.5-2.122" />
    </g>
    <defs>
        <radialGradient id="paint0_radial_823_171" cx="0" cy="0" r="1" gradientUnits="userSpaceOnUse" gradientTransform="translate(22.5 3) rotate(-0.842527) scale(34.0037)">
            <stop stop-color="#2F7889"/>
            <stop offset="1" stop-color="#424242"/>
        </radialGradient>
    </defs>
</svg>