<svg width="64" height="64" viewBox="0 0 64 64" fill="none" xmlns="http://www.w3.org/2000/svg">
<path d="M59.5264 31.9995C59.5264 47.2021 47.2021 59.5264 31.9995 59.5264C16.7969 59.5264 4.47266 47.2021 4.47266 31.9995C4.47266 16.7969 16.7969 4.47266 31.9995 4.47266C47.2021 4.47266 59.5264 16.7969 59.5264 31.9995Z" fill="#64748b"/>
<path d="M23.6667 15.332V48.6654H17V15.332H23.6667ZM27 15.332H43.675C45.5117 15.332 47 16.8287 47 18.6487V45.3487C47 47.1804 45.5117 48.6654 43.675 48.6654H27V15.332ZM48.6667 21.9987H52V28.6654H48.6667V21.9987ZM48.6667 31.9987H52V38.6654H48.6667V31.9987ZM37 31.9987C37.8841 31.9987 38.7319 31.6475 39.357 31.0224C39.9821 30.3973 40.3333 29.5494 40.3333 28.6654C40.3333 27.7813 39.9821 26.9335 39.357 26.3083C38.7319 25.6832 37.8841 25.332 37 25.332C36.1159 25.332 35.2681 25.6832 34.643 26.3083C34.0179 26.9335 33.6667 27.7813 33.6667 28.6654C33.6667 29.5494 34.0179 30.3973 34.643 31.0224C35.2681 31.6475 36.1159 31.9987 37 31.9987ZM32 38.6654H42C42 37.3393 41.4732 36.0675 40.5355 35.1298C39.5979 34.1921 38.3261 33.6654 37 33.6654C35.6739 33.6654 34.4021 34.1921 33.4645 35.1298C32.5268 36.0675 32 37.3393 32 38.6654Z" fill="#f1f5f9"/>
</svg>
