<svg width="64" height="64" viewBox="0 0 64 64" fill="none" xmlns="http://www.w3.org/2000/svg">
<path d="M59.5264 31.9995C59.5264 47.2021 47.2021 59.5264 31.9995 59.5264C16.7969 59.5264 4.47266 47.2021 4.47266 31.9995C4.47266 16.7969 16.7969 4.47266 31.9995 4.47266C47.2021 4.47266 59.5264 16.7969 59.5264 31.9995Z" fill="#64748b"/>
<path d="M34.1467 33.3711H30.2944C30.2944 39.4797 29.0312 41.9279 29.0312 41.9279H35.4098C35.4098 41.9249 34.1467 39.4767 34.1467 33.3711Z" fill="#f1f5f9"/>
<path d="M24.4934 42.2502C24.4724 41.9081 24.5234 41.4581 24.5234 41.4581C24.5234 41.4581 38.0966 40.8941 39.1737 41.4311C39.1737 41.4311 39.3177 41.9291 39.2187 42.2532C38.9817 43.0123 35.9214 43.6933 31.853 43.6933C27.7847 43.6933 24.5414 43.0453 24.4934 42.2502Z" fill="#f1f5f9"/>
<path d="M31.8735 43.0287C35.9415 43.0287 39.2392 42.3839 39.2392 41.5886C39.2392 40.7932 35.9415 40.1484 31.8735 40.1484C27.8055 40.1484 24.5078 40.7932 24.5078 41.5886C24.5078 42.3839 27.8055 43.0287 31.8735 43.0287Z" fill="#f1f5f9"/>
<path d="M34.1479 33.3711H30.2955C30.2955 35.3633 30.1605 36.9654 29.9805 38.2195L34.5739 38.9096C34.3399 37.5685 34.1479 35.7473 34.1479 33.3711Z" fill="#f1f5f9"/>
<path d="M29.3214 40.2422C29.3214 40.2422 28.2053 40.6982 28.4574 41.0313C28.8474 41.5533 29.9365 41.8803 32.5707 42.0574C34.4219 42.1804 33.6958 42.6964 31.9557 42.8014C30.7346 42.8734 24.881 42.9214 24.533 41.7003C24.251 40.7072 28.4874 40.2422 29.3214 40.2422Z" fill="#f1f5f9"/>
<path d="M42.4908 44.75H21.2158C20.9247 44.75 20.6337 44.912 20.4717 45.17L18.1375 48.3803C17.9214 48.6744 18.1345 49.0884 18.4975 49.0884H45.239C45.605 49.0884 45.8151 48.6744 45.599 48.3803L43.2348 45.14C43.0758 44.912 42.7848 44.75 42.4908 44.75Z" fill="#f1f5f9"/>
<g opacity="0.57">
<path d="M23.3527 46.1783H21.8945L22.0895 45.8242H23.5477L23.3527 46.1783Z" fill="#f1f5f9"/>
<path d="M25.6534 46.1783H24.1953L24.3573 45.8242H25.8785L25.6534 46.1783Z" fill="#f1f5f9"/>
<path d="M27.8544 46.1783H26.3633L26.5913 45.8242H28.0464L27.8544 46.1783Z" fill="#f1f5f9"/>
<path d="M30.0245 46.1783H28.5664L28.7944 45.8242H30.1866L30.0245 46.1783Z" fill="#f1f5f9"/>
<path d="M32.1982 46.1783H30.707L30.839 45.8242H32.0692L32.1982 46.1783Z" fill="#f1f5f9"/>
<path d="M34.3623 46.1783H32.9042L32.7422 45.8242H34.1373L34.3623 46.1783Z" fill="#f1f5f9"/>
<path d="M36.632 46.1783H35.1408L34.8828 45.8242H36.3409L36.632 46.1783Z" fill="#f1f5f9"/>
<path d="M38.8039 46.1783H37.3127L37.0547 45.8242H38.5458L38.8039 46.1783Z" fill="#f1f5f9"/>
<path d="M41.7471 46.1783H39.5119L39.2539 45.8242H41.5221L41.7471 46.1783Z" fill="#f1f5f9"/>
<path d="M40.6113 46.7611H42.0695L41.8115 46.3711H40.3203L40.6113 46.7611Z" fill="#f1f5f9"/>
<path d="M38.2198 46.7611H39.6749L39.3839 46.3711H37.9258L38.2198 46.7611Z" fill="#f1f5f9"/>
<path d="M36.0188 46.7611H37.474L37.249 46.3711H35.7578L36.0188 46.7611Z" fill="#f1f5f9"/>
<path d="M33.652 46.7611H35.1072L34.8492 46.3711H33.457L33.652 46.7611Z" fill="#f1f5f9"/>
<path d="M31.5469 46.7611H33.005L32.843 46.3711H31.6129L31.5469 46.7611Z" fill="#f1f5f9"/>
<path d="M29.4453 46.7611H30.9034L31.0025 46.3711H29.5773L29.4453 46.7611Z" fill="#f1f5f9"/>
<path d="M27.1406 46.7611H28.5988L28.7938 46.3711H27.3686L27.1406 46.7611Z" fill="#f1f5f9"/>
<path d="M24.5508 46.7611H26.0389L26.2669 46.3711H24.7758L24.5508 46.7611Z" fill="#f1f5f9"/>
<path d="M21.5742 46.7611H23.7764L24.0014 46.3711H21.7662L21.5742 46.7611Z" fill="#f1f5f9"/>
<path d="M35.5002 47.3471H36.9884L36.7303 46.957H35.2422L35.5002 47.3471Z" fill="#f1f5f9"/>
<path d="M33.1681 47.3471H34.6232L34.4312 46.957H33.0391L33.1681 47.3471Z" fill="#f1f5f9"/>
<path d="M30.3789 47.3471H31.87L31.837 46.957H30.5109L30.3789 47.3471Z" fill="#f1f5f9"/>
<path d="M27.7578 47.3471H29.249L29.378 46.957H27.9528L27.7578 47.3471Z" fill="#f1f5f9"/>
<path d="M25.0078 47.3471H26.4629L26.691 46.957H25.2328L25.0078 47.3471Z" fill="#f1f5f9"/>
<path d="M21.2773 47.3471H24.2266L24.4516 46.957H21.5054L21.2773 47.3471Z" fill="#f1f5f9"/>
<path d="M37.9924 47.3471H42.3968L42.1388 46.957H37.7344L37.9924 47.3471Z" fill="#f1f5f9"/>
<path d="M41.3262 47.9261H42.8143L42.5233 47.5391H41.0352L41.3262 47.9261Z" fill="#f1f5f9"/>
<path d="M38.6074 47.9261H40.0656L39.7745 47.5391H38.3164L38.6074 47.9261Z" fill="#f1f5f9"/>
<path d="M26.8477 47.9261H36.8536L36.6286 47.5391H27.0727L26.8477 47.9261Z" fill="#f1f5f9"/>
<path d="M23.707 47.9261H25.1952L25.3572 47.5391H23.9321L23.707 47.9261Z" fill="#f1f5f9"/>
<path d="M20.9258 47.9261H22.3809L22.5429 47.5391H21.1178L20.9258 47.9261Z" fill="#f1f5f9"/>
</g>
<path d="M45.2773 50.003H18.4608C18.1968 50.003 17.9688 49.775 17.9688 49.5169V48.7969H45.7754V49.5169C45.7724 49.775 45.5413 50.003 45.2773 50.003Z" fill="#f1f5f9"/>
<path d="M42.4926 45.053C42.6757 45.053 42.8827 45.161 42.9937 45.3171L45.4599 48.6984C45.4749 48.7164 45.4749 48.7374 45.4659 48.7584C45.4539 48.7794 45.4389 48.7884 45.4149 48.7884H18.3284C18.3044 48.7884 18.2894 48.7794 18.2774 48.7584C18.2717 48.7491 18.2692 48.7382 18.2703 48.7274C18.2713 48.7165 18.276 48.7063 18.2834 48.6984L20.7196 45.3501L20.7256 45.3411L20.7316 45.3321C20.8366 45.161 21.0286 45.053 21.2207 45.053H42.4926ZM42.4926 44.75H21.2177C20.9266 44.75 20.6356 44.912 20.4736 45.17L18.0374 48.5184C17.8663 48.7554 18.0344 49.0884 18.3284 49.0884H45.4179C45.7119 49.0884 45.88 48.7554 45.7089 48.5184L43.2427 45.137C43.0777 44.912 42.7867 44.75 42.4926 44.75Z" fill="#f1f5f9"/>
<path d="M46.7109 36.7012H17.0321C16.7584 36.7012 16.4958 36.5925 16.3023 36.3989C16.1087 36.2054 16 35.9429 16 35.6691V15.5673C16 14.9972 16.462 14.5352 17.0321 14.5352H46.7079C47.2779 14.5352 47.74 14.9972 47.74 15.5673V35.6691C47.743 36.2392 47.2809 36.7012 46.7109 36.7012Z" fill="#f1f5f9"/>
<path d="M46.7109 36.1661H17.0321C16.7584 36.1661 16.4958 36.0573 16.3023 35.8638C16.1087 35.6702 16 35.4077 16 35.134V15.0321C16 14.462 16.462 14 17.0321 14H46.7079C47.2779 14 47.74 14.462 47.74 15.0321V35.134C47.7403 35.2694 47.714 35.4035 47.6624 35.5287C47.6109 35.6539 47.5351 35.7676 47.4395 35.8635C47.3439 35.9594 47.2304 36.0355 47.1053 36.0874C46.9803 36.1393 46.8463 36.166 46.7109 36.1661Z" fill="#f1f5f9"/>
<path d="M19.1055 17.1055H44.7157V34.179H19.1055V17.1055Z" fill="#64748b"/>
</svg>
