<svg width="64" height="64" viewBox="0 0 64 64" fill="none" xmlns="http://www.w3.org/2000/svg">
<path d="M59.5264 31.9995C59.5264 47.2021 47.2021 59.5264 31.9995 59.5264C16.7969 59.5264 4.47266 47.2021 4.47266 31.9995C4.47266 16.7969 16.7969 4.47266 31.9995 4.47266C47.2021 4.47266 59.5264 16.7969 59.5264 31.9995Z" fill="url(#paint0_radial_826_555)"/>
<path d="M34.2381 33.4688H30.3669C30.3669 39.6072 29.0977 42.0673 29.0977 42.0673H35.5074C35.5074 42.0643 34.2381 39.6041 34.2381 33.4688Z" fill="#B7D5E5"/>
<path d="M24.5324 42.3881C24.5113 42.0444 24.5626 41.5922 24.5626 41.5922C24.5626 41.5922 38.2022 41.0254 39.2845 41.565C39.2845 41.565 39.4292 42.0655 39.3297 42.3911C39.0916 43.1539 36.0163 43.8383 31.9281 43.8383C27.8398 43.8383 24.5807 43.1871 24.5324 42.3881Z" fill="#2F7889"/>
<path d="M31.9485 43.1678C36.0364 43.1678 39.3502 42.5199 39.3502 41.7206C39.3502 40.9214 36.0364 40.2734 31.9485 40.2734C27.8607 40.2734 24.5469 40.9214 24.5469 41.7206C24.5469 42.5199 27.8607 43.1678 31.9485 43.1678Z" fill="#B7D5E5"/>
<path d="M34.2385 33.4688H30.3673C30.3673 35.4707 30.2317 37.0806 30.0508 38.3409L34.6666 39.0343C34.4315 37.6866 34.2385 35.8566 34.2385 33.4688Z" fill="#69A1BA"/>
<path d="M29.384 40.3672C29.384 40.3672 28.2624 40.8255 28.5156 41.1601C28.9076 41.6847 30.002 42.0133 32.6491 42.1912C34.5093 42.3148 33.7797 42.8334 32.0311 42.9389C30.804 43.0113 24.9218 43.0595 24.5721 41.8324C24.2887 40.8345 28.5458 40.3672 29.384 40.3672Z" fill="#EEEEEE"/>
<path d="M42.6218 44.9023H21.2429C20.9505 44.9023 20.658 45.0652 20.4952 45.3244L18.1496 48.5504C17.9325 48.8459 18.1466 49.2619 18.5114 49.2619H45.3835C45.7513 49.2619 45.9624 48.8459 45.7453 48.5504L43.3695 45.2943C43.2098 45.0651 42.9173 44.9023 42.6218 44.9023Z" fill="#EEEEEE"/>
<g opacity="0.57">
<path d="M23.391 46.3362H21.9258L22.1218 45.9805H23.587L23.391 46.3362Z" fill="#69A1BA"/>
<path d="M25.7035 46.3362H24.2383L24.4011 45.9805H25.9297L25.7035 46.3362Z" fill="#69A1BA"/>
<path d="M27.9203 46.3362H26.4219L26.651 45.9805H28.1133L27.9203 46.3362Z" fill="#69A1BA"/>
<path d="M30.0981 46.3362H28.6328L28.8619 45.9805H30.2609L30.0981 46.3362Z" fill="#69A1BA"/>
<path d="M32.2797 46.3362H30.7812L30.9139 45.9805H32.15L32.2797 46.3362Z" fill="#69A1BA"/>
<path d="M34.4562 46.3362H32.9909L32.8281 45.9805H34.2301L34.4562 46.3362Z" fill="#69A1BA"/>
<path d="M36.7382 46.3362H35.2398L34.9805 45.9805H36.4457L36.7382 46.3362Z" fill="#69A1BA"/>
<path d="M38.9179 46.3362H37.4194L37.1602 45.9805H38.6586L38.9179 46.3362Z" fill="#69A1BA"/>
<path d="M41.8765 46.3362H39.6304L39.3711 45.9805H41.6504L41.8765 46.3362Z" fill="#69A1BA"/>
<path d="M40.7378 46.9232H42.203L41.9437 46.5312H40.4453L40.7378 46.9232Z" fill="#69A1BA"/>
<path d="M38.3306 46.9232H39.7929L39.5004 46.5312H38.0352L38.3306 46.9232Z" fill="#69A1BA"/>
<path d="M36.1178 46.9232H37.58L37.3539 46.5312H35.8555L36.1178 46.9232Z" fill="#69A1BA"/>
<path d="M33.7428 46.9232H35.2051L34.9458 46.5312H33.5469L33.7428 46.9232Z" fill="#69A1BA"/>
<path d="M31.625 46.9232H33.0903L32.9275 46.5312H31.6913L31.625 46.9232Z" fill="#69A1BA"/>
<path d="M29.5117 46.9232H30.977L31.0765 46.5312H29.6444L29.5117 46.9232Z" fill="#69A1BA"/>
<path d="M27.1992 46.9232H28.6645L28.8604 46.5312H27.4284L27.1992 46.9232Z" fill="#69A1BA"/>
<path d="M24.5977 46.9232H26.0931L26.3222 46.5312H24.8238L24.5977 46.9232Z" fill="#69A1BA"/>
<path d="M21.6016 46.9232H23.8145L24.0406 46.5312H21.7945L21.6016 46.9232Z" fill="#69A1BA"/>
<path d="M35.5952 47.5091H37.0906L36.8313 47.1172H35.3359L35.5952 47.5091Z" fill="#69A1BA"/>
<path d="M33.2546 47.5091H34.7169L34.5239 47.1172H33.125L33.2546 47.5091Z" fill="#69A1BA"/>
<path d="M30.4531 47.5091H31.9515L31.9184 47.1172H30.5858L30.4531 47.5091Z" fill="#69A1BA"/>
<path d="M27.8203 47.5091H29.3187L29.4484 47.1172H28.0163L27.8203 47.5091Z" fill="#69A1BA"/>
<path d="M25.0547 47.5091H26.5169L26.7461 47.1172H25.2808L25.0547 47.5091Z" fill="#69A1BA"/>
<path d="M21.3086 47.5091H24.2723L24.4984 47.1172H21.5377L21.3086 47.5091Z" fill="#69A1BA"/>
<path d="M38.103 47.5091H42.529L42.2697 47.1172H37.8438L38.103 47.5091Z" fill="#69A1BA"/>
<path d="M41.4565 48.092H42.9519L42.6595 47.7031H41.1641L41.4565 48.092Z" fill="#69A1BA"/>
<path d="M38.7221 48.092H40.1874L39.8949 47.7031H38.4297L38.7221 48.092Z" fill="#69A1BA"/>
<path d="M26.9062 48.092H36.9611L36.7349 47.7031H27.1324L26.9062 48.092Z" fill="#69A1BA"/>
<path d="M23.75 48.092H25.2454L25.4082 47.7031H23.9761L23.75 48.092Z" fill="#69A1BA"/>
<path d="M20.9531 48.092H22.4154L22.5782 47.7031H21.1461L20.9531 48.092Z" fill="#69A1BA"/>
</g>
<path d="M45.4224 50.1768H18.4749C18.2096 50.1768 17.9805 49.9477 17.9805 49.6884V48.9648H45.9229V49.6884C45.9199 49.9477 45.6877 50.1768 45.4224 50.1768Z" fill="#2F7889"/>
<path d="M42.6242 45.2069C42.8081 45.2069 43.0161 45.3154 43.1276 45.4722L45.6059 48.87C45.621 48.8881 45.621 48.9092 45.612 48.9303C45.5999 48.9514 45.5848 48.9604 45.5607 48.9604H18.3419C18.3177 48.9604 18.3027 48.9514 18.2906 48.9303C18.2849 48.921 18.2824 48.91 18.2835 48.8991C18.2845 48.8882 18.2892 48.878 18.2966 48.87L20.7448 45.5053L20.7508 45.4963L20.7568 45.4872C20.8623 45.3154 21.0553 45.2069 21.2483 45.2069H42.6242ZM42.6242 44.9023H21.2452C20.9528 44.9023 20.6603 45.0652 20.4975 45.3244L18.0494 48.6891C17.8776 48.9273 18.0464 49.2619 18.3419 49.2619H45.5637C45.8592 49.2619 46.028 48.9273 45.8562 48.6891L43.3779 45.2913C43.2121 45.0652 42.9196 44.9023 42.6242 44.9023Z" fill="#B7D5E5"/>
<path d="M46.8609 36.8095H17.0371C16.7621 36.8095 16.4983 36.7002 16.3038 36.5057C16.1093 36.3112 16 36.0474 16 35.7724V15.5723C16 14.9995 16.4643 14.5352 17.0371 14.5352H46.8579C47.4307 14.5352 47.895 14.9995 47.895 15.5723V35.7724C47.898 36.3452 47.4337 36.8095 46.8609 36.8095Z" fill="#69A1BA"/>
<path d="M46.8609 36.2743H17.0371C16.7621 36.2743 16.4983 36.1651 16.3038 35.9706C16.1093 35.7761 16 35.5123 16 35.2372V15.0371C16 14.4643 16.4643 14 17.0371 14H46.8579C47.4307 14 47.895 14.4643 47.895 15.0371V35.2372C47.8954 35.3733 47.8689 35.508 47.8171 35.6338C47.7653 35.7596 47.6892 35.874 47.5931 35.9703C47.497 36.0666 47.3829 36.1431 47.2573 36.1953C47.1316 36.2474 46.9969 36.2743 46.8609 36.2743Z" fill="#B7D5E5"/>
<path d="M17.25 15.6211H46.6456V34.6514H17.25V15.6211Z" fill="url(#paint1_radial_826_555)"/>
<defs>
<radialGradient id="paint0_radial_826_555" cx="0" cy="0" r="1" gradientUnits="userSpaceOnUse" gradientTransform="translate(20.5 4) scale(36.5)">
<stop stop-color="#2F7889"/>
<stop offset="1" stop-color="#424242"/>
</radialGradient>
<radialGradient id="paint1_radial_826_555" cx="0" cy="0" r="1" gradientUnits="userSpaceOnUse" gradientTransform="translate(26.6611 11.2326) scale(18.383)">
<stop stop-color="#E0E8EA"/>
<stop offset="1" stop-color="#2F7889"/>
</radialGradient>
</defs>
</svg>
