<svg width="64" height="64" viewBox="0 0 64 64" fill="none" xmlns="http://www.w3.org/2000/svg">
    <circle cx="32" cy="32" r="27" fill="url(#paint0_radial_823_171)"/>
    <g transform="translate(12 12) scale(1.7)" fill="#B7D5E5" stroke-width="2">
        <path d="M19.006 3.705a.75.75 0 1 0-.512-1.41L6 6.838V3a.75.75 0 0 0-.75-.75h-1.5A.75.75 0 0 0 3 3v4.93l-1.006.365a.75.75 0 0 0 .512 1.41l16.5-6Z" />
        <path fill-rule="evenodd" d="M3.019 11.114 18 5.667v3.421l4.006 1.457a.75.75 0 1 1-.512 1.41l-.494-.18v8.475h.75a.75.75 0 0 1 0 1.5H2.25a.75.75 0 0 1 0-1.5H3v-9.129l.019-.007ZM18 20.25v-9.566l1.5.546v9.02H18Zm-9-6a.75.75 0 0 0-.75.75v4.5c0 .414.336.75.75.75h3a.75.75 0 0 0 .75-.75V15a.75.75 0 0 0-.75-.75H9Z" clip-rule="evenodd" />
    </g>
    <defs>
        <radialGradient id="paint0_radial_823_171" cx="0" cy="0" r="1" gradientUnits="userSpaceOnUse" gradientTransform="translate(22.5 3) rotate(-0.842527) scale(34.0037)">
            <stop stop-color="#2F7889"/>
            <stop offset="1" stop-color="#424242"/>
        </radialGradient>
    </defs>
</svg>
