<svg width="64" height="64" viewBox="0 0 64 64" fill="none" xmlns="http://www.w3.org/2000/svg">
    <circle cx="31.9999" cy="31.9999" r="27.871" fill="#64748b" stroke="#64748b"/>
    <g transform="translate(24 6) scale(0.9)" stroke="#f1f5f9" fill="#f1f5f9" stroke-width='1.5'>
        <path d="M 2 7 L 2 24 L 30 24 L 30 7 L 2 7 z M 6 9 L 26 9 C 26 10.105 26.895 11 28 11 L 28 20 C 26.895 20 26 20.895 26 22 L 6 22 C 6 20.895 5.105 20 4 20 L 4 11 C 5.105 11 6 10.105 6 9 z M 16 11 C 13.789 11 12 13.016 12 15.5 C 12 17.984 13.789 20 16 20 C 18.211 20 20 17.984 20 15.5 C 20 13.016 18.211 11 16 11 z M 16 13 C 17.102 13 18 14.121 18 15.5 C 18 16.879 17.102 18 16 18 C 14.898 18 14 16.879 14 15.5 C 14 14.121 14.898 13 16 13 z M 8.5 14 C 7.672 14 7 14.672 7 15.5 C 7 16.328 7.672 17 8.5 17 C 9.328 17 10 16.328 10 15.5 C 10 14.672 9.328 14 8.5 14 z M 23.5 14 C 22.672 14 22 14.672 22 15.5 C 22 16.328 22.672 17 23.5 17 C 24.328 17 25 16.328 25 15.5 C 25 14.672 24.328 14 23.5 14 z"/>
    </g>
    <g transform="translate(15 22) scale(1.3)" fill="#f1f5f9" stroke="#f1f5f9" stroke-width='2'>
        <path d="M12 13.414l-2.554 2.554a4 4 0 1 1-1.414-1.414L10.586 12 4.565 5.98a2 2 0 0 1 0-2.83L12 10.587l7.435-7.435a2 2 0 0 1 0 2.828L13.415 12l2.553 2.554a4 4 0 1 1-1.414 1.414L12 13.414zM6 20a2 2 0 1 0 0-4 2 2 0 0 0 0 4zm12 0a2 2 0 1 0 0-4 2 2 0 0 0 0 4z"/>
    </g>
</svg>