<svg width="64" height="64" viewBox="0 0 64 64" fill="none" xmlns="http://www.w3.org/2000/svg">
<path d="M59.5264 31.9995C59.5264 47.2021 47.2021 59.5264 31.9995 59.5264C16.7969 59.5264 4.47266 47.2021 4.47266 31.9995C4.47266 16.7969 16.7969 4.47266 31.9995 4.47266C47.2021 4.47266 59.5264 16.7969 59.5264 31.9995Z" fill="url(#paint0_radial_829_748)"/>
<path d="M23.3673 15.0742C17.2133 18.2182 13 24.6186 13 32.003C13 35.0421 13.7137 37.9147 14.9826 40.462C15.3198 41.139 15.432 41.9128 15.2365 42.6435L14.1049 46.8725C13.6136 48.7083 15.2933 50.388 17.1294 49.8967L21.3588 48.7652C22.0895 48.5697 22.8633 48.6819 23.5403 49.0192C26.0879 50.2879 28.9606 51.0017 32 51.0017C41.2821 51.0017 49.0096 44.3461 50.67 35.5473C47.534 39.1933 42.8866 41.5022 37.7 41.5022C28.2559 41.5022 20.6 33.847 20.6 24.4036C20.6 20.9616 21.6171 17.7571 23.3673 15.0742Z" fill="url(#paint1_radial_829_748)"/>
<path d="M23.9813 15.3239L23.9813 15.3239C26.407 14.1552 29.127 13.5 32.0016 13.5C42.2188 13.5 50.5016 21.7821 50.5016 31.9985C50.5016 33.132 50.3996 34.2413 50.2046 35.318C47.161 38.7998 42.6882 40.9978 37.7016 40.9978C28.5335 40.9978 21.1016 33.5663 21.1016 24.3991C21.1016 21.1047 22.0609 18.0358 23.7153 15.4547C23.8036 15.4104 23.8922 15.3668 23.9813 15.3239Z" stroke="#B7D5E5"/>
<path d="M43.9992 29.9C43.9992 30.9494 43.1486 31.8 42.0992 31.8C41.0498 31.8 40.1992 30.9494 40.1992 29.9C40.1992 28.8506 41.0498 28 42.0992 28C43.1486 28 43.9992 28.8506 43.9992 29.9Z" fill="#B7D5E5"/>
<path d="M36.4016 29.9C36.4016 30.9494 35.5509 31.8 34.5016 31.8C33.4522 31.8 32.6016 30.9494 32.6016 29.9C32.6016 28.8506 33.4522 28 34.5016 28C35.5509 28 36.4016 28.8506 36.4016 29.9Z" fill="#B7D5E5"/>
<path d="M28.8 29.9C28.8 30.9494 27.9493 31.8 26.9 31.8C25.8507 31.8 25 30.9494 25 29.9C25 28.8506 25.8507 28 26.9 28C27.9493 28 28.8 28.8506 28.8 29.9Z" fill="#B7D5E5"/>
<defs>
<radialGradient id="paint0_radial_829_748" cx="0" cy="0" r="1" gradientUnits="userSpaceOnUse" gradientTransform="translate(20.5 4) scale(36.5)">
<stop stop-color="#2F7889"/>
<stop offset="1" stop-color="#424242"/>
</radialGradient>
<radialGradient id="paint1_radial_829_748" cx="0" cy="0" r="1" gradientUnits="userSpaceOnUse" gradientTransform="translate(10 29) rotate(20.2249) scale(40.4969 42.4611)">
<stop stop-color="#B7D5E5"/>
<stop offset="1" stop-color="#2F7889"/>
</radialGradient>
</defs>
</svg>
