<svg width="64" height="64" viewBox="0 0 64 64" fill="none" xmlns="http://www.w3.org/2000/svg">
<circle cx="31.9999" cy="31.9999" r="27.871" fill="#64748b" stroke="#64748b"/>
<g transform="translate(13 13) scale(1.6)">
    <path stroke="white" stroke-width="2" stroke-linecap="round" stroke-linejoin="round" d="M8.25 6.75h12M8.25 12h12m-12 5.25h12M3.75 6.75h.007v.008H3.75V6.75Zm.375 0a.375.375 0 1 1-.75 0 .375.375 0 0 1 .75 0ZM3.75 12h.007v.008H3.75V12Zm.375 0a.375.375 0 1 1-.75 0 .375.375 0 0 1 .75 0Zm-.375 5.25h.007v.008H3.75v-.008Zm.375 0a.375.375 0 1 1-.75 0 .375.375 0 0 1 .75 0Z" />
</g>
</svg>