<svg width="64" height="64" viewBox="0 0 64 64" fill="none" xmlns="http://www.w3.org/2000/svg">
<circle cx="31.9999" cy="31.9999" r="27.871" fill="#64748b" stroke="#64748b"/>
<g transform="translate(11 13) scale(1.8)">
    <path stroke-width="2" stroke="white" stroke-linecap="round" stroke-linejoin="round" d="M3.75 3v11.25A2.25 2.25 0 0 0 6 16.5h2.25M3.75 3h-1.5m1.5 0h16.5m0 0h1.5m-1.5 0v11.25A2.25 2.25 0 0 1 18 16.5h-2.25m-7.5 0h7.5m-7.5 0-1 3m8.5-3 1 3m0 0 .5 1.5m-.5-1.5h-9.5m0 0-.5 1.5M9 11.25v1.5M12 9v3.75m3-6v6" />
</g>
</svg>

