<svg width="64" height="64" viewBox="0 0 64 64" fill="none" xmlns="http://www.w3.org/2000/svg">
<path d="M59.5264 31.9995C59.5264 47.2021 47.2021 59.5264 31.9995 59.5264C16.7969 59.5264 4.47266 47.2021 4.47266 31.9995C4.47266 16.7969 16.7969 4.47266 31.9995 4.47266C47.2021 4.47266 59.5264 16.7969 59.5264 31.9995Z" fill="url(#paint0_radial_912_269)"/>
<path d="M35.1544 23.5352C36.1381 23.5345 37.165 24.2946 37.165 26.3065V32.9177C37.165 33.9319 38.0895 34.3327 38.4916 34.4667L43.0635 36.1344C45.007 36.8716 46.2132 38.9491 45.6771 41.0936L43.5326 48.0629C43.3986 48.599 42.9295 49.0011 42.3263 49.0011H31.5368C31.0007 49.0011 30.5316 48.7331 30.3305 48.264C27.7383 42.2456 26.3009 38.9086 26.0183 38.2528C25.7357 37.5971 25.9222 37.0697 26.5776 36.6706C27.7839 35.7994 29.5933 36.6971 30.3305 37.9704L31.4133 39.4471C31.8394 40.2564 33.1452 40.2564 33.1452 39.0502V26.3065C33.1452 24.2946 34.1708 23.5358 35.1544 23.5352Z" fill="#B7D5E5"/>
<path d="M45.1667 17C46.725 17 48 18.2522 48 19.7826V30.2174C48 31.5268 46.7118 33.0021 45.1667 33H40.9241C40.2083 33 40.2083 32.4352 40.2083 32.3454V26.3913C40.2083 23.7163 38.805 21.1739 35.25 21.1739C31.695 21.1739 30.2917 23.3916 30.2917 26.3913V32.3454C30.2917 32.588 30.1041 33 29.5747 33H16.8333C15.275 33 14 31.7478 14 30.2174V19.7826C14 18.2522 15.275 17 16.8333 17H45.1667Z" fill="url(#paint1_radial_912_269)"/>
<defs>
<radialGradient id="paint0_radial_912_269" cx="0" cy="0" r="1" gradientUnits="userSpaceOnUse" gradientTransform="translate(20.5 4) scale(36.5)">
<stop stop-color="#2F7889"/>
<stop offset="1" stop-color="#424242"/>
</radialGradient>
<radialGradient id="paint1_radial_912_269" cx="0" cy="0" r="1" gradientUnits="userSpaceOnUse" gradientTransform="translate(11.2923 23.2017) rotate(10.3029) scale(34.8599 19.8273)">
<stop stop-color="#B7D5E5"/>
<stop offset="1" stop-color="#2F7889"/>
</radialGradient>
</defs>
</svg>
