<svg width="64" height="64" viewBox="0 0 64 64" fill="none" xmlns="http://www.w3.org/2000/svg">
<path d="M59.5264 31.9995C59.5264 47.2021 47.2021 59.5264 31.9995 59.5264C16.7969 59.5264 4.47266 47.2021 4.47266 31.9995C4.47266 16.7969 16.7969 4.47266 31.9995 4.47266C47.2021 4.47266 59.5264 16.7969 59.5264 31.9995Z" fill="white"/>
<path d="M35.1544 23.5352C36.1381 23.5345 37.165 24.2946 37.165 26.3065V32.9177C37.165 33.9319 38.0895 34.3327 38.4916 34.4667L43.0635 36.1344C45.007 36.8716 46.2132 38.9491 45.6771 41.0936L43.5326 48.0629C43.3986 48.599 42.9295 49.0011 42.3263 49.0011H31.5368C31.0007 49.0011 30.5316 48.7331 30.3305 48.264C27.7383 42.2456 26.3009 38.9086 26.0183 38.2528C25.7357 37.5971 25.9222 37.0697 26.5776 36.6706C27.7839 35.7994 29.5933 36.6971 30.3305 37.9704L31.4133 39.4471C31.8394 40.2564 33.1452 40.2564 33.1452 39.0502V26.3065C33.1452 24.2946 34.1708 23.5358 35.1544 23.5352Z" fill="#232F40"/>
<path d="M44.4869 17C45.9613 17 47.1675 18.2063 47.1675 19.6806V29.733C47.1675 30.9944 45.9488 32.4156 44.4869 32.4136H40.473C39.7958 32.4136 39.7958 31.8695 39.7958 31.7831V26.0471C39.7958 23.4702 38.4681 21.0209 35.1047 21.0209C31.7413 21.0209 30.4136 23.1574 30.4136 26.0471V31.7831C30.4136 32.0167 30.2362 32.4136 29.7353 32.4136H17.6806C16.2063 32.4136 15 31.2073 15 29.733V19.6806C15 18.2063 16.2063 17 17.6806 17H44.4869Z" stroke="#232F40" stroke-width="2"/>
</svg>
