<svg width="64" height="64" viewBox="0 0 64 64" fill="none" xmlns="http://www.w3.org/2000/svg">
    <path d="M59.5264 31.9995C59.5264 47.2021 47.2021 59.5264 31.9995 59.5264C16.7969 59.5264 4.47266 47.2021 4.47266 31.9995C4.47266 16.7969 16.7969 4.47266 31.9995 4.47266C47.2021 4.47266 59.5264 16.7969 59.5264 31.9995Z" fill="url(#paint0_radial_826_659)"/>
    <g transform="translate(2 2) scale(0.97)">
        <path d="M17.418 19.7539H42.8133V28.4418H27.7766V41.1395H17.418V19.7539Z"/>
        <circle cx="40.4716" cy="41.4716" r="9.69033"/>
        <path d="M13 18.2727C13 15.9129 14.9129 14 17.2727 14H42.9086C45.2683 14 47.1813 15.9129 47.1813 18.2727V31.132C45.2628 29.9038 42.9819 29.1917 40.5349 29.1917C33.7178 29.1917 28.1917 34.7178 28.1917 41.5349C28.1917 43.9819 28.9038 46.2628 30.132 48.1813H17.2727C14.9129 48.1813 13 46.2683 13 43.9086V18.2727ZM26.825 24.9766C27.3812 24.4204 27.3812 23.5187 26.825 22.9625C26.2689 22.4063 25.3671 22.4063 24.8109 22.9625L22.0201 25.7533L21.1282 24.8614C20.572 24.3052 19.6702 24.3052 19.114 24.8614C18.5578 25.4176 18.5578 26.3194 19.114 26.8756L21.013 28.7745C21.5692 29.3307 22.471 29.3307 23.0271 28.7745L26.825 24.9766ZM26.825 35.4208C27.3812 34.8646 27.3812 33.963 26.825 33.4068C26.2689 32.8506 25.3671 32.8506 24.8109 33.4068L22.0201 36.1975L21.1282 35.3058C20.572 34.7496 19.6702 34.7496 19.114 35.3058C18.5578 35.862 18.5578 36.7636 19.114 37.3198L21.013 39.2188C21.5692 39.775 22.471 39.775 23.0271 39.2188L26.825 35.4208ZM32.4643 24.4443C31.6778 24.4443 31.0401 25.0819 31.0401 25.8685C31.0401 26.6551 31.6778 27.2927 32.4643 27.2927H39.1107C39.8973 27.2927 40.5349 26.6551 40.5349 25.8685C40.5349 25.0819 39.8973 24.4443 39.1107 24.4443H32.4643Z" fill="#B7D5E5"/>
        <path d="M51.0018 41.5576C51.0018 35.7893 46.3258 31.1133 40.5576 31.1133C34.7893 31.1133 30.1133 35.7893 30.1133 41.5576C30.1133 47.3258 34.7893 52.0018 40.5576 52.0018C46.3258 52.0018 51.0018 47.3258 51.0018 41.5576ZM41.5082 42.507L41.5091 47.2611C41.5091 47.7856 41.0841 48.2106 40.5597 48.2106C40.0354 48.2106 39.6102 47.7856 39.6102 47.2611L39.6092 42.507H34.8533C34.329 42.507 33.9038 42.0821 33.9038 41.5576C33.9038 41.0333 34.329 40.6081 34.8533 40.6081H39.609L39.6081 35.8594C39.6081 35.3349 40.0333 34.9099 40.5576 34.9099C41.0819 34.9099 41.507 35.3349 41.507 35.8594L41.508 40.6081H46.2601C46.7846 40.6081 47.2096 41.0333 47.2096 41.5576C47.2096 42.0821 46.7846 42.507 46.2601 42.507H41.5082Z" fill="#B7D5E5"/>
    </g>

    <defs>
        <radialGradient id="paint0_radial_826_659" cx="0" cy="0" r="1" gradientUnits="userSpaceOnUse" gradientTransform="translate(20.5 4) scale(36.5)">
        <stop stop-color="#2F7889"/>
        <stop offset="1" stop-color="#424242"/>
        </radialGradient>
    </defs>
</svg>
