<svg width="64" height="64" viewBox="0 0 64 64" fill="none" xmlns="http://www.w3.org/2000/svg">
<path d="M59.5264 31.9995C59.5264 47.2021 47.2021 59.5264 31.9995 59.5264C16.7969 59.5264 4.47266 47.2021 4.47266 31.9995C4.47266 16.7969 16.7969 4.47266 31.9995 4.47266C47.2021 4.47266 59.5264 16.7969 59.5264 31.9995Z" fill="#64748b"/>
<path d="M8 39.5193C8 35.1293 11.2101 31.5703 15.1699 31.5703C19.1297 31.5703 22.3398 35.1293 22.3398 39.5196L8 39.5193Z" fill="#f1f5f9"/>
<path d="M15.3125 31.5703V39.5163H22.372C22.3721 35.1674 19.221 31.6362 15.3125 31.5703Z" fill="#f1f5f9"/>
<path d="M15.296 30.5326C17.0797 30.5326 18.5256 28.9294 18.5256 26.9518C18.5256 24.9742 17.0797 23.3711 15.296 23.3711C13.5124 23.3711 12.0664 24.9742 12.0664 26.9518C12.0664 28.9294 13.5124 30.5326 15.296 30.5326Z" fill="#f1f5f9"/>
<path d="M15.3178 23.3711C15.316 23.3711 15.3142 23.3714 15.3125 23.3714V30.5326C15.3143 30.5326 15.3161 30.5328 15.3178 30.5328C17.1015 30.5328 18.5474 28.9298 18.5474 26.9521C18.5474 24.9744 17.1014 23.3714 15.3178 23.3711Z" fill="#f1f5f9"/>
<path d="M41.6289 39.5193C41.6289 35.1293 44.839 31.5703 48.7988 31.5703C52.7586 31.5703 55.9687 35.1293 55.9687 39.5196L41.6289 39.5193Z" fill="#f1f5f9"/>
<path d="M48.9414 31.5703V39.5163H56.0009C56.001 35.1674 52.8499 31.6362 48.9414 31.5703Z" fill="#f1f5f9"/>
<path d="M48.9249 30.5326C50.7086 30.5326 52.1545 28.9294 52.1545 26.9518C52.1545 24.9742 50.7086 23.3711 48.9249 23.3711C47.1413 23.3711 45.6953 24.9742 45.6953 26.9518C45.6953 28.9294 47.1413 30.5326 48.9249 30.5326Z" fill="#f1f5f9"/>
<path d="M48.9467 23.3711C48.9449 23.3711 48.9431 23.3714 48.9414 23.3714V30.5326C48.9432 30.5326 48.945 30.5328 48.9467 30.5328C50.7304 30.5328 52.1763 28.9298 52.1763 26.9521C52.1763 24.9744 50.7303 23.3714 48.9467 23.3711Z" fill="#f1f5f9"/>
<path d="M24.2344 25.1482C24.2344 20.7582 27.4445 17.1992 31.4043 17.1992C35.3641 17.1992 38.5742 20.7582 38.5742 25.1485L24.2344 25.1482Z" fill="#f1f5f9"/>
<path d="M31.5469 17.1992V25.1452H38.6064C38.6065 20.7963 35.4554 17.2651 31.5469 17.1992Z" fill="#f1f5f9"/>
<path d="M31.5304 16.1615C33.3141 16.1615 34.76 14.5583 34.76 12.5807C34.76 10.6031 33.3141 9 31.5304 9C29.7467 9 28.3008 10.6031 28.3008 12.5807C28.3008 14.5583 29.7467 16.1615 31.5304 16.1615Z" fill="#f1f5f9"/>
<path d="M31.5521 9C31.5503 9 31.5485 9.00028 31.5469 9.00028V16.1615C31.5487 16.1615 31.5505 16.1618 31.5521 16.1618C33.3359 16.1618 34.7817 14.5587 34.7817 12.581C34.7817 10.6034 33.3357 9.00028 31.5521 9Z" fill="#f1f5f9"/>
<path d="M24.2344 55.8006C24.2344 51.4106 27.4445 47.8516 31.4043 47.8516C35.3641 47.8516 38.5742 51.4106 38.5742 55.8009L24.2344 55.8006Z" fill="#f1f5f9"/>
<path d="M31.5469 47.8516V55.7976H38.6064C38.6065 51.4486 35.4554 47.9175 31.5469 47.8516Z" fill="#f1f5f9"/>
<path d="M31.5304 46.8138C33.3141 46.8138 34.76 45.2107 34.76 43.2331C34.76 41.2555 33.3141 39.6523 31.5304 39.6523C29.7467 39.6523 28.3008 41.2555 28.3008 43.2331C28.3008 45.2107 29.7467 46.8138 31.5304 46.8138Z" fill="#f1f5f9"/>
<path d="M31.5521 39.6523C31.5503 39.6523 31.5485 39.6526 31.5469 39.6526V46.8138C31.5487 46.8138 31.5505 46.8141 31.5521 46.8141C33.3359 46.8141 34.7817 45.211 34.7817 43.2334C34.7817 41.2557 33.3357 39.6526 31.5521 39.6523Z" fill="#f1f5f9"/>
</svg>
