<svg width="64" height="64" viewBox="0 0 64 64" fill="none" xmlns="http://www.w3.org/2000/svg">
<path d="M59.5264 31.9995C59.5264 47.2021 47.2021 59.5264 31.9995 59.5264C16.7969 59.5264 4.47266 47.2021 4.47266 31.9995C4.47266 16.7969 16.7969 4.47266 31.9995 4.47266C47.2021 4.47266 59.5264 16.7969 59.5264 31.9995Z" fill="url(#paint0_radial_826_384)"/>
<path d="M8 39.515C8 35.1252 11.21 31.5664 15.1695 31.5664C19.1291 31.5664 22.3391 35.1252 22.3391 39.5153L8 39.515Z" fill="#B7D5E5"/>
<path d="M15.3125 31.5664V39.512H22.3716C22.3717 35.1633 19.2208 31.6323 15.3125 31.5664Z" fill="#95BDD3"/>
<path d="M15.2958 30.5283C17.0794 30.5283 18.5253 28.9252 18.5253 26.9477C18.5253 24.9703 17.0794 23.3672 15.2958 23.3672C13.5123 23.3672 12.0664 24.9703 12.0664 26.9477C12.0664 28.9252 13.5123 30.5283 15.2958 30.5283Z" fill="#B7D5E5"/>
<path d="M15.3178 23.3672C15.316 23.3672 15.3142 23.3675 15.3125 23.3675V30.5283C15.3143 30.5283 15.3161 30.5286 15.3178 30.5286C17.1014 30.5286 18.5472 28.9256 18.5472 26.948C18.5472 24.9705 17.1013 23.3675 15.3178 23.3672Z" fill="#95BDD3"/>
<path d="M41.6328 39.515C41.6328 35.1252 44.8428 31.5664 48.8024 31.5664C52.7619 31.5664 55.9719 35.1252 55.9719 39.5153L41.6328 39.515Z" fill="#B7D5E5"/>
<path d="M48.9453 31.5664V39.512H56.0044C56.0045 35.1633 52.8536 31.6323 48.9453 31.5664Z" fill="#95BDD3"/>
<path d="M48.9287 30.5283C50.7122 30.5283 52.1581 28.9252 52.1581 26.9477C52.1581 24.9703 50.7122 23.3672 48.9287 23.3672C47.1451 23.3672 45.6992 24.9703 45.6992 26.9477C45.6992 28.9252 47.1451 30.5283 48.9287 30.5283Z" fill="#B7D5E5"/>
<path d="M48.9506 23.3672C48.9488 23.3672 48.947 23.3675 48.9453 23.3675V30.5283C48.9471 30.5283 48.9489 30.5286 48.9506 30.5286C50.7342 30.5286 52.18 28.9256 52.18 26.948C52.18 24.9705 50.7341 23.3675 48.9506 23.3672Z" fill="#95BDD3"/>
<path d="M24.2383 25.1478C24.2383 20.758 27.4482 17.1992 31.4078 17.1992C35.3674 17.1992 38.5774 20.758 38.5774 25.1481L24.2383 25.1478Z" fill="#2F7889"/>
<path d="M31.5508 17.1992V25.1448H38.6099C38.61 20.7961 35.4591 17.2651 31.5508 17.1992Z" fill="#246878"/>
<path d="M31.5341 16.1611C33.3177 16.1611 34.7636 14.558 34.7636 12.5805C34.7636 10.6031 33.3177 9 31.5341 9C29.7506 9 28.3047 10.6031 28.3047 12.5805C28.3047 14.558 29.7506 16.1611 31.5341 16.1611Z" fill="#2F7889"/>
<path d="M31.556 9C31.5542 9 31.5524 9.00028 31.5508 9.00028V16.1611C31.5526 16.1611 31.5544 16.1614 31.556 16.1614C33.3397 16.1614 34.7855 14.5584 34.7855 12.5808C34.7855 10.6033 33.3395 9.00028 31.556 9Z" fill="#246878"/>
<path d="M24.2383 55.8041C24.2383 51.4143 27.4482 47.8555 31.4078 47.8555C35.3674 47.8555 38.5774 51.4143 38.5774 55.8043L24.2383 55.8041Z" fill="#B7D5E5"/>
<path d="M31.5508 47.8555V55.8011H38.6099C38.61 51.4524 35.4591 47.9214 31.5508 47.8555Z" fill="#95BDD3"/>
<path d="M31.5341 46.8173C33.3177 46.8173 34.7636 45.2143 34.7636 43.2368C34.7636 41.2593 33.3177 39.6562 31.5341 39.6562C29.7506 39.6562 28.3047 41.2593 28.3047 43.2368C28.3047 45.2143 29.7506 46.8173 31.5341 46.8173Z" fill="#B7D5E5"/>
<path d="M31.556 39.6562C31.5542 39.6562 31.5524 39.6565 31.5508 39.6565V46.8173C31.5526 46.8173 31.5544 46.8176 31.556 46.8176C33.3397 46.8176 34.7855 45.2146 34.7855 43.2371C34.7855 41.2595 33.3395 39.6565 31.556 39.6562Z" fill="#95BDD3"/>
<defs>
<radialGradient id="paint0_radial_826_384" cx="0" cy="0" r="1" gradientUnits="userSpaceOnUse" gradientTransform="translate(20.5 4) scale(36.5)">
<stop stop-color="#2F7889"/>
<stop offset="1" stop-color="#424242"/>
</radialGradient>
</defs>
</svg>
