<svg width="64" height="64" viewBox="0 0 64 64" fill="none" xmlns="http://www.w3.org/2000/svg">
<path d="M59.5264 31.9995C59.5264 47.2021 47.2021 59.5264 31.9995 59.5264C16.7969 59.5264 4.47266 47.2021 4.47266 31.9995C4.47266 16.7969 16.7969 4.47266 31.9995 4.47266C47.2021 4.47266 59.5264 16.7969 59.5264 31.9995Z" fill="url(#paint0_radial_823_212)"/>
<path d="M45.2293 48.2994C41.4658 50.8847 36.9082 52.3976 31.9971 52.3976C27.0861 52.3976 22.5285 50.8844 18.765 48.2991C17.1028 47.1573 16.3924 44.9824 17.3589 43.2124C19.3623 39.5431 23.4906 37.2578 31.9971 37.2578C40.5038 37.2578 44.632 39.5434 46.6354 43.2124C47.6019 44.9824 46.8914 47.1576 45.2293 48.2994Z" fill="#B7D5E5"/>
<path d="M32.0001 32.0005C36.5611 32.0005 40.2582 28.3034 40.2582 23.7424C40.2582 19.1816 36.5611 15.4844 32.0001 15.4844C27.4395 15.4844 23.7422 19.1816 23.7422 23.7424C23.7422 28.3034 27.4395 32.0005 32.0001 32.0005Z" fill="#B7D5E5"/>
<defs>
<radialGradient id="paint0_radial_823_212" cx="0" cy="0" r="1" gradientUnits="userSpaceOnUse" gradientTransform="translate(20.5 4) scale(36.5)">
<stop stop-color="#2F7889"/>
<stop offset="1" stop-color="#424242"/>
</radialGradient>
</defs>
</svg>
