<svg width="64" height="64" viewBox="0 0 64 64" fill="none" xmlns="http://www.w3.org/2000/svg">
<path d="M59.5264 31.9995C59.5264 47.2021 47.2021 59.5264 31.9995 59.5264C16.7969 59.5264 4.47266 47.2021 4.47266 31.9995C4.47266 16.7969 16.7969 4.47266 31.9995 4.47266C47.2021 4.47266 59.5264 16.7969 59.5264 31.9995Z" fill="#64748b"/>
<path d="M46.4 21.2H41V17.6C41 16.6452 40.6207 15.7295 39.9456 15.0544C39.2705 14.3793 38.3548 14 37.4 14H26.6C25.6452 14 24.7295 14.3793 24.0544 15.0544C23.3793 15.7295 23 16.6452 23 17.6V21.2H17.6C16.6452 21.2 15.7295 21.5793 15.0544 22.2544C14.3793 22.9295 14 23.8452 14 24.8V46.4C14 47.3548 14.3793 48.2705 15.0544 48.9456C15.7295 49.6207 16.6452 50 17.6 50H46.4C47.3548 50 48.2705 49.6207 48.9456 48.9456C49.6207 48.2705 50 47.3548 50 46.4V24.8C50 23.8452 49.6207 22.9295 48.9456 22.2544C48.2705 21.5793 47.3548 21.2 46.4 21.2ZM26.6 17.6H37.4V21.2H26.6V17.6Z" fill="#f1f5f9"/>
<path d="M48.5324 23.3211L48.5488 23.3447L48.5665 23.3674C48.6531 23.478 48.709 23.6094 48.7286 23.7484C48.7479 23.8845 48.7317 24.0232 48.6818 24.1512L45.4855 31.6033C45.4851 31.6042 45.4847 31.605 45.4844 31.6059C44.8512 33.056 43.8022 34.2859 42.47 35.1399C41.1371 35.9943 39.5805 36.434 37.9975 36.4033L37.9878 36.4031H37.9781L25.8821 36.4031L25.8786 36.4031C24.3172 36.4086 22.7884 35.957 21.4806 35.1041C20.1746 34.2523 19.146 33.0376 18.5212 31.6092L15.392 24.1637L15.3864 24.1503L15.3804 24.1372C15.3219 24.0086 15.2985 23.8669 15.3126 23.7264C15.3266 23.5859 15.3776 23.4516 15.4604 23.3372L15.4661 23.3292L15.4717 23.3211C15.7106 22.9767 16.0293 22.6952 16.4005 22.5005C16.7715 22.306 17.184 22.2039 17.603 22.2031H46.4012C46.8201 22.2039 47.2326 22.306 47.6036 22.5005C47.9748 22.6952 48.2935 22.9767 48.5324 23.3211Z" fill="#64748b" stroke="#f1f5f9" stroke-width="2"/>
<path d="M33.8023 32H30.2023C29.2082 32 28.4023 32.8059 28.4023 33.8V37.4C28.4023 38.3941 29.2082 39.2 30.2023 39.2H33.8023C34.7965 39.2 35.6023 38.3941 35.6023 37.4V33.8C35.6023 32.8059 34.7965 32 33.8023 32Z" fill="#f1f5f9"/>
</svg>
