<svg width="64" height="64" viewBox="0 0 64 64" fill="none" xmlns="http://www.w3.org/2000/svg">
<path d="M59.5264 31.9995C59.5264 47.2021 47.2021 59.5264 31.9995 59.5264C16.7969 59.5264 4.47266 47.2021 4.47266 31.9995C4.47266 16.7969 16.7969 4.47266 31.9995 4.47266C47.2021 4.47266 59.5264 16.7969 59.5264 31.9995Z" fill="url(#paint0_radial_823_237)"/>
<path d="M46.4 21.2H41V17.6C41 16.6452 40.6207 15.7295 39.9456 15.0544C39.2705 14.3793 38.3548 14 37.4 14H26.6C25.6452 14 24.7295 14.3793 24.0544 15.0544C23.3793 15.7295 23 16.6452 23 17.6V21.2H17.6C16.6452 21.2 15.7295 21.5793 15.0544 22.2544C14.3793 22.9295 14 23.8452 14 24.8V46.4C14 47.3548 14.3793 48.2705 15.0544 48.9456C15.7295 49.6207 16.6452 50 17.6 50H46.4C47.3548 50 48.2705 49.6207 48.9456 48.9456C49.6207 48.2705 50 47.3548 50 46.4V24.8C50 23.8452 49.6207 22.9295 48.9456 22.2544C48.2705 21.5793 47.3548 21.2 46.4 21.2ZM26.6 17.6H37.4V21.2H26.6V17.6Z" fill="#B7D5E5"/>
<g filter="url(#filter0_d_823_237)">
<path d="M49.3541 22.7511C49.0233 22.2742 48.582 21.8844 48.068 21.6149C47.554 21.3453 46.9825 21.2041 46.4021 21.2031H17.6021C17.0217 21.2041 16.4501 21.3453 15.9361 21.6149C15.4221 21.8844 14.9809 22.2742 14.6501 22.7511C14.4639 23.0086 14.3491 23.3107 14.3175 23.6269C14.2859 23.943 14.3385 24.2619 14.4701 24.5511L17.6021 32.0031C18.3047 33.613 19.463 34.9821 20.9343 35.9417C22.4056 36.9012 24.1255 37.4092 25.8821 37.4031H37.9781C39.759 37.4377 41.5101 36.943 43.0097 35.9817C44.5093 35.0205 45.6899 33.6358 46.4021 32.0031L49.6061 24.5331C49.7241 24.2401 49.763 23.9212 49.7188 23.6084C49.6745 23.2956 49.5488 22.9999 49.3541 22.7511Z" fill="#B7D5E5"/>
</g>
<g filter="url(#filter1_di_823_237)">
<path d="M33.8023 32H30.2023C29.2082 32 28.4023 32.8059 28.4023 33.8V37.4C28.4023 38.3941 29.2082 39.2 30.2023 39.2H33.8023C34.7965 39.2 35.6023 38.3941 35.6023 37.4V33.8C35.6023 32.8059 34.7965 32 33.8023 32Z" fill="#2F7889"/>
</g>
<defs>
<filter id="filter0_d_823_237" x="13.3086" y="21.2031" width="39.4297" height="20.2031" filterUnits="userSpaceOnUse" color-interpolation-filters="sRGB">
<feFlood flood-opacity="0" result="BackgroundImageFix"/>
<feColorMatrix in="SourceAlpha" type="matrix" values="0 0 0 0 0 0 0 0 0 0 0 0 0 0 0 0 0 0 127 0" result="hardAlpha"/>
<feOffset dx="1" dy="2"/>
<feGaussianBlur stdDeviation="1"/>
<feComposite in2="hardAlpha" operator="out"/>
<feColorMatrix type="matrix" values="0 0 0 0 0.0521522 0 0 0 0 0.157896 0 0 0 0 0.182522 0 0 0 0.36 0"/>
<feBlend mode="normal" in2="BackgroundImageFix" result="effect1_dropShadow_823_237"/>
<feBlend mode="normal" in="SourceGraphic" in2="effect1_dropShadow_823_237" result="shape"/>
</filter>
<filter id="filter1_di_823_237" x="28.4023" y="32" width="9.19922" height="9.19922" filterUnits="userSpaceOnUse" color-interpolation-filters="sRGB">
<feFlood flood-opacity="0" result="BackgroundImageFix"/>
<feColorMatrix in="SourceAlpha" type="matrix" values="0 0 0 0 0 0 0 0 0 0 0 0 0 0 0 0 0 0 127 0" result="hardAlpha"/>
<feOffset dx="1" dy="1"/>
<feGaussianBlur stdDeviation="0.5"/>
<feComposite in2="hardAlpha" operator="out"/>
<feColorMatrix type="matrix" values="0 0 0 0 0 0 0 0 0 0 0 0 0 0 0 0 0 0 0.2 0"/>
<feBlend mode="normal" in2="BackgroundImageFix" result="effect1_dropShadow_823_237"/>
<feBlend mode="normal" in="SourceGraphic" in2="effect1_dropShadow_823_237" result="shape"/>
<feColorMatrix in="SourceAlpha" type="matrix" values="0 0 0 0 0 0 0 0 0 0 0 0 0 0 0 0 0 0 127 0" result="hardAlpha"/>
<feOffset dx="1" dy="1"/>
<feGaussianBlur stdDeviation="0.5"/>
<feComposite in2="hardAlpha" operator="arithmetic" k2="-1" k3="1"/>
<feColorMatrix type="matrix" values="0 0 0 0 0 0 0 0 0 0 0 0 0 0 0 0 0 0 0.25 0"/>
<feBlend mode="normal" in2="shape" result="effect2_innerShadow_823_237"/>
</filter>
<radialGradient id="paint0_radial_823_237" cx="0" cy="0" r="1" gradientUnits="userSpaceOnUse" gradientTransform="translate(20.5 4) scale(36.5)">
<stop stop-color="#2F7889"/>
<stop offset="1" stop-color="#424242"/>
</radialGradient>
</defs>
</svg>
