<?xml version="1.0" encoding="utf-8"?>
<!-- Generator: Adobe Illustrator 23.0.1, SVG Export Plug-In . SVG Version: 6.00 Build 0)  -->
<svg version="1.1" id="Слой_1" xmlns="http://www.w3.org/2000/svg" xmlns:xlink="http://www.w3.org/1999/xlink" x="0px" y="0px"
	 viewBox="0 0 26.3 43.1" style="enable-background:new 0 0 26.3 43.1;" xml:space="preserve">
<style type="text/css">
	.st0{fill-rule:evenodd;clip-rule:evenodd;fill:#F7F7F7;stroke:#000000;stroke-linecap:round;stroke-linejoin:round;}
	.st1{enable-background:new    ;}
</style>
<g transform="translate(1.906 1.041)">
	<path class="st0" d="M11.5,12.7l12.1-6.3v27.3l-12.1,6.3V12.7z"/>
	<path class="st0" d="M11.2,12.7L-1.1,6.2v27.3l12.2,6.4V12.7z"/>
	<path class="st0" d="M11.3-0.3l12.4,6.5l-12.2,6.4L-1.1,6.2L11.3-0.3z"/>
</g>
<g class="st1">
	<path d="M19.5,42.6l1.8-4.7H22l1.9,4.7h-0.7l-0.5-1.4h-2l-0.5,1.4H19.5z M20.9,40.7h1.6L22,39.4c-0.1-0.4-0.3-0.7-0.3-1
		c-0.1,0.3-0.1,0.6-0.3,0.9L20.9,40.7z"/>
</g>
<g class="st1">
	<path d="M2.9,42.6v-4.7h1.8c0.4,0,0.6,0,0.9,0.1c0.2,0.1,0.4,0.2,0.5,0.4c0.1,0.2,0.2,0.4,0.2,0.6c0,0.2-0.1,0.4-0.2,0.6
		c-0.1,0.2-0.3,0.3-0.5,0.4c0.3,0.1,0.5,0.2,0.7,0.4c0.2,0.2,0.2,0.4,0.2,0.7c0,0.2,0,0.4-0.1,0.6c-0.1,0.2-0.2,0.3-0.3,0.4
		s-0.3,0.2-0.5,0.2c-0.2,0.1-0.5,0.1-0.8,0.1H2.9z M3.5,39.9h1c0.3,0,0.5,0,0.6-0.1c0.2,0,0.3-0.1,0.4-0.2c0.1-0.1,0.1-0.2,0.1-0.4
		c0-0.2,0-0.3-0.1-0.4c-0.1-0.1-0.2-0.2-0.3-0.2c-0.1,0-0.4-0.1-0.7-0.1H3.5V39.9z M3.5,42.1h1.2c0.2,0,0.3,0,0.4,0
		c0.1,0,0.3-0.1,0.4-0.1c0.1-0.1,0.2-0.1,0.2-0.3c0.1-0.1,0.1-0.2,0.1-0.4c0-0.2,0-0.3-0.1-0.5c-0.1-0.1-0.2-0.2-0.4-0.3
		c-0.2-0.1-0.4-0.1-0.7-0.1H3.5V42.1z"/>
</g>
</svg>
