<?xml version="1.0" encoding="utf-8"?>
<!-- Generator: Adobe Illustrator 23.0.1, SVG Export Plug-In . SVG Version: 6.00 Build 0)  -->
<svg version="1.1" id="Слой_1" xmlns="http://www.w3.org/2000/svg" xmlns:xlink="http://www.w3.org/1999/xlink" x="0px" y="0px"
	 viewBox="0 0 42 42.5" style="enable-background:new 0 0 42 42.5;" xml:space="preserve">
<style type="text/css">
	.st0{fill-rule:evenodd;clip-rule:evenodd;fill:#7D7D7D;stroke:#424242;}
	.st1{fill-rule:evenodd;clip-rule:evenodd;fill:#F7F7F7;stroke:#000000;stroke-linecap:round;stroke-linejoin:round;}
	.st2{enable-background:new    ;}
</style>
<g transform="translate(.113 .04)">
	<path class="st0" d="M0.9,11.5L0.7,38.6L31,22.4l-10.5-21L0.9,11.5z"/>
	<path class="st0" d="M41,12.2v25.9l-19.1-8.9l-0.2-28L41,12.2z"/>
	<g transform="translate(9.046 1.054)">
		<path class="st1" d="M11.2,12.6l11.8-6.5v27.1l-10.8,6.4L11.2,12.6z"/>
		<path class="st1" d="M12.2,12.6L0,6.2l0.3,27.1l11.8,6.4V12.6z"/>
		<path class="st1" d="M12.2-0.1l10.8,6.3l-10.8,6.5L0,6.2L12.2-0.1z"/>
	</g>
</g>
<g class="st2">
	<path d="M27.3,42.2l1.8-4.7h0.7l1.9,4.7H31l-0.5-1.4h-2L28,42.2H27.3z M28.7,40.2h1.6l-0.5-1.3c-0.2-0.4-0.3-0.7-0.3-1
		c-0.1,0.3-0.1,0.6-0.3,0.9L28.7,40.2z"/>
</g>
<g class="st2">
	<path d="M10.7,42.2v-4.7h1.8c0.4,0,0.6,0,0.9,0.1c0.2,0.1,0.4,0.2,0.5,0.4c0.1,0.2,0.2,0.4,0.2,0.6c0,0.2-0.1,0.4-0.2,0.6
		c-0.1,0.2-0.3,0.3-0.5,0.4c0.3,0.1,0.5,0.2,0.7,0.4c0.2,0.2,0.2,0.4,0.2,0.7c0,0.2,0,0.4-0.1,0.6c-0.1,0.2-0.2,0.3-0.3,0.4
		s-0.3,0.2-0.5,0.2c-0.2,0.1-0.5,0.1-0.8,0.1H10.7z M11.3,39.4h1c0.3,0,0.5,0,0.6-0.1c0.2,0,0.3-0.1,0.4-0.2
		c0.1-0.1,0.1-0.2,0.1-0.4c0-0.2,0-0.3-0.1-0.4c-0.1-0.1-0.2-0.2-0.3-0.2c-0.1,0-0.4-0.1-0.7-0.1h-0.9V39.4z M11.3,41.6h1.2
		c0.2,0,0.3,0,0.4,0c0.1,0,0.3-0.1,0.4-0.1c0.1-0.1,0.2-0.1,0.2-0.3c0.1-0.1,0.1-0.2,0.1-0.4c0-0.2,0-0.3-0.1-0.5
		c-0.1-0.1-0.2-0.2-0.4-0.3C12.9,40,12.7,40,12.4,40h-1.1V41.6z"/>
</g>
</svg>
