<?xml version="1.0" encoding="utf-8"?>
<!-- Generator: Adobe Illustrator 23.0.1, SVG Export Plug-In . SVG Version: 6.00 Build 0)  -->
<svg version="1.1" id="Слой_1" xmlns="http://www.w3.org/2000/svg" xmlns:xlink="http://www.w3.org/1999/xlink" x="0px" y="0px"
	 viewBox="0 0 35.7 49.4" style="enable-background:new 0 0 35.7 49.4;" xml:space="preserve">
<style type="text/css">
	.st0{fill-rule:evenodd;clip-rule:evenodd;fill:#7D7D7D;stroke:#424242;}
	.st1{fill-rule:evenodd;clip-rule:evenodd;fill:#F7F7F7;stroke:#000000;stroke-linecap:round;stroke-linejoin:round;}
	.st2{enable-background:new    ;}
</style>
<g transform="translate(.621 .04)">
	<path class="st0" d="M0.7,17.2l0.1,26.4l31.2-16L31.9,1.1L0.7,17.2z"/>
	<g transform="translate(9.68 5.867)">
		<path class="st1" d="M11.6,13.1l12.2-6.5v27.3l-11.7,5.9L11.6,13.1z"/>
		<path class="st1" d="M12.1,13.1L0.3,6.6v26.9l11.7,6.2V13.1z"/>
		<path class="st1" d="M12.4,0.4l11.4,6.2l-11.7,6.2L0.3,6.6L12.4,0.4z"/>
	</g>
</g>
<g class="st2">
	<path d="M28.3,48.2l1.8-4.7h0.7l1.9,4.7H32l-0.5-1.4h-2L29,48.2H28.3z M29.6,46.2h1.6l-0.5-1.3c-0.1-0.4-0.3-0.7-0.3-1
		c-0.1,0.3-0.1,0.6-0.3,0.9L29.6,46.2z"/>
</g>
<g class="st2">
	<path d="M11.6,48.2v-4.7h1.8c0.4,0,0.6,0,0.9,0.1c0.2,0.1,0.4,0.2,0.5,0.4c0.1,0.2,0.2,0.4,0.2,0.6c0,0.2-0.1,0.4-0.2,0.6
		c-0.1,0.2-0.3,0.3-0.5,0.4c0.3,0.1,0.5,0.2,0.7,0.4c0.2,0.2,0.2,0.4,0.2,0.7c0,0.2,0,0.4-0.1,0.6c-0.1,0.2-0.2,0.3-0.3,0.4
		s-0.3,0.2-0.5,0.2c-0.2,0.1-0.5,0.1-0.8,0.1H11.6z M12.2,45.4h1c0.3,0,0.5,0,0.6-0.1c0.2,0,0.3-0.1,0.4-0.2
		c0.1-0.1,0.1-0.2,0.1-0.4c0-0.2,0-0.3-0.1-0.4c-0.1-0.1-0.2-0.2-0.3-0.2c-0.1,0-0.4-0.1-0.7-0.1h-0.9V45.4z M12.2,47.6h1.2
		c0.2,0,0.3,0,0.4,0c0.1,0,0.3-0.1,0.4-0.1c0.1-0.1,0.2-0.1,0.2-0.3c0.1-0.1,0.1-0.2,0.1-0.4c0-0.2,0-0.3-0.1-0.5
		c-0.1-0.1-0.2-0.2-0.4-0.3C13.9,46,13.6,46,13.3,46h-1.1V47.6z"/>
</g>
</svg>
