<svg width="330" height="330" viewBox="0 0 400 400" fill="none" xmlns="http://www.w3.org/2000/svg">
<g clip-path="url(#clip0_4516_68446)">
<path d="M283.446 158.395C281.774 159.048 279.917 158.593 279.099 157.011C278.281 155.428 278.944 153.777 280.484 152.664C282.023 151.551 284.012 152.466 284.831 154.048C285.823 155.968 285.118 157.742 283.446 158.395Z" stroke="#9EBCD6"/>
<path d="M114.775 379.012C112.248 379.999 109.441 379.312 108.205 376.919C106.968 374.527 107.97 372.032 110.298 370.349C112.625 368.666 115.632 370.049 116.868 372.442C118.368 375.343 117.303 378.025 114.775 379.012Z" stroke="#9EBCD6"/>
<path d="M205.184 58.7799C202.251 59.925 198.994 59.1276 197.559 56.3512C196.124 53.5749 197.286 50.6787 199.987 48.7259C202.689 46.773 206.178 48.3782 207.613 51.1545C209.353 54.5222 208.117 57.6348 205.184 58.7799Z" stroke="#9EBCD6"/>
<path d="M129.185 264.78C126.251 265.925 122.994 265.128 121.559 262.351C120.124 259.575 121.287 256.679 123.988 254.726C126.689 252.773 130.178 254.378 131.613 257.155C133.354 260.522 132.118 263.635 129.185 264.78Z" stroke="#9EBCD6"/>
<path d="M268.812 385.332C264.834 386.885 260.417 385.804 258.471 382.039C256.524 378.273 258.101 374.346 261.764 371.697C265.428 369.049 270.16 371.226 272.106 374.991C274.467 379.558 272.79 383.779 268.812 385.332Z" stroke="#9EBCD6"/>
<path d="M368.568 313.743C366.677 314.482 364.576 313.967 363.65 312.177C362.725 310.386 363.475 308.518 365.217 307.259C366.959 305.999 369.209 307.035 370.135 308.825C371.257 310.997 370.46 313.005 368.568 313.743Z" stroke="#9EBCD6"/>
<path d="M28.2893 122.302C27.342 122.672 26.2901 122.414 25.8267 121.518C25.3632 120.621 25.7386 119.686 26.6111 119.055C27.4835 118.424 28.6103 118.943 29.0737 119.839C29.6359 120.927 29.2367 121.932 28.2893 122.302Z" stroke="#9EBCD6"/>
<path d="M45.2893 54.1274C44.342 54.4972 43.2901 54.2397 42.8267 53.343C42.3632 52.4464 42.7386 51.5111 43.6111 50.8804C44.4835 50.2497 45.6103 50.7681 46.0737 51.6647C46.6359 52.7523 46.2367 53.7576 45.2893 54.1274Z" stroke="#9EBCD6"/>
<path d="M142.289 199.127C141.342 199.497 140.29 199.24 139.827 198.343C139.363 197.446 139.739 196.511 140.611 195.88C141.483 195.25 142.61 195.768 143.074 196.665C143.636 197.752 143.237 198.758 142.289 199.127Z" stroke="#9EBCD6"/>
<path d="M220.289 265.127C219.342 265.497 218.29 265.24 217.827 264.343C217.363 263.446 217.739 262.511 218.611 261.88C219.483 261.25 220.61 261.768 221.074 262.665C221.636 263.752 221.237 264.758 220.289 265.127Z" stroke="#9EBCD6"/>
<path d="M171.289 74.1274C170.342 74.4972 169.29 74.2397 168.827 73.343C168.363 72.4464 168.739 71.5111 169.611 70.8804C170.483 70.2497 171.61 70.7681 172.074 71.6647C172.636 72.7523 172.237 73.7576 171.289 74.1274Z" stroke="#9EBCD6"/>
<path d="M257.289 34.1275C256.342 34.4973 255.29 34.2397 254.827 33.3431C254.363 32.4465 254.739 31.5111 255.611 30.8804C256.483 30.2498 257.61 30.7682 258.074 31.6648C258.636 32.7524 258.237 33.7576 257.289 34.1275Z" stroke="#9EBCD6"/>
<path d="M92.2893 157.127C91.342 157.497 90.2901 157.24 89.8267 156.343C89.3632 155.446 89.7386 154.511 90.6111 153.88C91.4835 153.25 92.6103 153.768 93.0737 154.665C93.6359 155.752 93.2367 156.758 92.2893 157.127Z" stroke="#9EBCD6"/>
<path d="M313.289 287.127C312.342 287.497 311.29 287.24 310.827 286.343C310.363 285.446 310.739 284.511 311.611 283.88C312.483 283.25 313.61 283.768 314.074 284.665C314.636 285.752 314.237 286.758 313.289 287.127Z" stroke="#9EBCD6"/>
<path d="M43.2893 313.127C42.342 313.497 41.2901 313.24 40.8267 312.343C40.3632 311.446 40.7386 310.511 41.6111 309.88C42.4835 309.25 43.6103 309.768 44.0737 310.665C44.6359 311.752 44.2367 312.758 43.2893 313.127Z" stroke="#9EBCD6"/>
<path d="M-17.2728 108.669C-7.12406 114.785 17.2522 127.034 17.2522 127.034L19.0234 125.289M-17.2728 108.669C-16.3904 108.47 -15.397 107.691 -15.6802 106.544M-17.2728 108.669C-18.2386 107.486 -19.8018 105.566 -21.0829 103.98M19.0234 125.289L20.5194 122.43M19.0234 125.289C7.51564 118.471 -10.876 110.65 -15.6802 106.544M20.5194 122.43C20.5194 122.43 21.092 119.946 20.4156 118.922C8.36795 113.505 -5.94244 105.227 -13.4543 101.838M20.5194 122.43C12.8678 118.638 6.3968 114.92 1.94943 112.864C-2.49793 110.808 -9.04184 106.369 -14.5476 104.271M-13.4543 101.838C-12.809 103.08 -13.3934 103.8 -14.5476 104.271M-13.4543 101.838L-18.6942 101.577M-15.6802 106.544C-14.6373 106.309 -14.1013 105.221 -14.5476 104.271M-21.0829 103.98C-22.0567 102.775 -22.8675 101.763 -23.1289 101.416C-23.3903 101.068 -18.6942 101.577 -18.6942 101.577M-21.0829 103.98C-21.0829 103.98 -20.1206 104.289 -19.605 103.29C-19.0895 102.291 -18.6942 101.577 -18.6942 101.577" stroke="#9EBCD6" stroke-linejoin="round"/>
<path d="M337.31 103.911C337.474 105.474 340.34 107.505 350.496 103.117C363.191 97.6327 361.102 89.3783 349.734 93.2853C338.366 97.1923 344.77 112.562 354.769 105.761C364.769 98.9598 369.659 95.7837 374.622 100.434" stroke="#9EBCD6" stroke-linecap="round"/>
<path d="M382.697 108.669C392.846 114.785 417.222 127.034 417.222 127.034L418.993 125.289M382.697 108.669C383.579 108.47 384.573 107.691 384.29 106.544M382.697 108.669C381.731 107.486 380.168 105.566 378.887 103.98M418.993 125.289L420.489 122.43M418.993 125.289C407.485 118.471 389.094 110.65 384.29 106.544M420.489 122.43C420.489 122.43 421.062 119.946 420.385 118.922C408.338 113.505 394.027 105.227 386.515 101.838M420.489 122.43C412.838 118.638 406.367 114.92 401.919 112.864C397.472 110.808 390.928 106.369 385.422 104.271M386.515 101.838C387.161 103.08 386.576 103.8 385.422 104.271M386.515 101.838L381.276 101.577M384.29 106.544C385.332 106.309 385.868 105.221 385.422 104.271M378.887 103.98C377.913 102.775 377.102 101.763 376.841 101.416C376.579 101.068 381.276 101.577 381.276 101.577M378.887 103.98C378.887 103.98 379.849 104.289 380.365 103.29C380.88 102.291 381.276 101.577 381.276 101.577" stroke="#9EBCD6" stroke-linejoin="round"/>
<path d="M15.099 375.251C13.2187 377.353 10.239 378.37 8.39108 376.405C7.0467 370.673 5.81842 358.503 -3.50006 357.5C-14.2326 356.345 -19.7813 357.528 -51.3081 367.342M15.099 375.251C17.7821 351.579 5.90329 344.195 -5.50006 347C-13.0127 348.848 -34.5385 362.152 -51.3081 367.342M15.099 375.251C18.2887 371.571 21.5172 370.863 22.7768 374.096C25.887 360.405 21.1355 334.837 -0.999817 337.146C-11.7373 338.267 -20.4525 351.754 -51.3081 367.342M-51.3081 367.342C-19.2532 366.092 -7.74852 356.82 -0.369183 378.181C2.11669 385.377 3.4078 372.966 8.39177 376.403" stroke="#9EBCD6" stroke-linejoin="round"/>
<path d="M353.426 389.103C349.384 385.485 345.274 381.56 343.359 373.264C341.444 364.968 344.491 358.041 345.342 355.488C345.755 353.451 348.086 354.356 347.682 355.702C347.388 356.682 346.618 358.255 345.767 360.169C347.856 357.501 352.362 359.318 353.426 360.808C354.277 359.744 354.244 358.578 354.881 356.505C355.155 354.808 357.536 355.152 357.255 356.553C356.617 359.744 355.013 367.405 355.128 370.168C355.427 377.381 357.215 379.068 360.234 382.508C364.638 387.525 361.207 387.433 359.262 385.731C357.685 384.352 355.889 382.346 354.613 383.623C353.684 384.552 355.341 386.975 356.192 388.252C357.894 390.804 358.056 393.246 353.426 389.103Z" stroke="#9EBCD6" stroke-linejoin="round"/>
<path d="M347.031 369.323C345.912 368.316 346.218 365.593 346.51 364.357C346.648 363.653 347.138 362.284 348.432 362.549C349.727 362.815 350.75 364.515 350.144 366.787C349.538 369.06 348.43 370.581 347.031 369.323Z" stroke="#9EBCD6" stroke-linejoin="round"/>
<path d="M414.736 375.251C412.855 377.353 409.876 378.37 408.028 376.405C406.683 370.673 405.455 358.503 396.137 357.5C385.404 356.345 379.855 357.528 348.329 367.342M414.736 375.251C417.419 351.579 405.54 344.195 394.137 347C386.624 348.848 365.098 362.152 348.329 367.342M414.736 375.251C417.925 371.571 421.154 370.863 422.414 374.096C425.524 360.405 420.772 334.837 398.637 337.146C387.899 338.267 379.184 351.754 348.329 367.342M348.329 367.342C380.383 366.092 391.888 356.82 399.268 378.181C401.753 385.377 403.045 372.966 408.028 376.403" stroke="#9EBCD6" stroke-linejoin="round"/>
<path d="M344.879 378.672C348.606 377.702 350.803 376.328 350.803 376.328M344.432 375.06C346.48 374.62 348.985 374.637 350.35 374.063M343.772 371.988C345.626 372.304 349.352 371.903 350.171 371.727" stroke="#9EBCD6" stroke-linecap="round" stroke-linejoin="round"/>
<path d="M338.812 311.332C334.834 312.885 330.417 311.804 328.471 308.039C326.524 304.273 328.101 300.346 331.764 297.697C335.428 295.049 340.16 297.226 342.106 300.991C344.467 305.558 342.79 309.779 338.812 311.332Z" stroke="#9EBCD6"/>
<path d="M131.763 105.918C123.824 110.001 119.049 115.093 120.16 119.146C121.759 124.985 134.967 126.454 149.66 122.428C164.352 118.403 174.966 110.406 173.366 104.568C172.24 100.458 165.362 98.513 156.263 99.1258" stroke="#9EBCD6"/>
<path d="M168.866 105.756C168.24 103.428 165.498 101.911 161.5 101.302M126.236 112.5C124.461 114.491 123.66 116.482 124.134 118.244C124.619 120.048 126.374 121.365 129 122.15" stroke="#9EBCD6" stroke-linecap="round"/>
<path d="M159.121 102.804C160.25 106.994 154.528 110.483 146.882 112.612C139.237 114.74 132.563 114.701 131.433 110.512C130.303 106.322 134.912 98.703 142.557 96.5745C150.203 94.4461 157.991 98.614 159.121 102.804Z" stroke="#9EBCD6"/>
<circle cx="138.763" cy="108.5" r="2.5" stroke="#9EBCD6"/>
<circle cx="145.763" cy="106.5" r="2.5" stroke="#9EBCD6"/>
<circle cx="152.763" cy="103.5" r="2.5" stroke="#9EBCD6"/>
<path d="M146.396 18L148.498 32.1103L161.897 36.0573L149.278 39.3349L143 53.5L140.399 39.09L128 35.143L141.619 30.8655L146.396 18Z" stroke="#9EBCD6" stroke-linejoin="round"/>
<path d="M207.482 184L208.908 193.937L218 196.716L209.438 199.025L205.178 209L203.413 198.852L195 196.073L204.241 193.06L207.482 184Z" stroke="#9EBCD6" stroke-linejoin="round"/>
<path d="M271.111 298L272.723 308.732L286 311.734L273.321 314.227L270.506 325L266.51 314.04L257 311.038L267.446 307.785L271.111 298Z" stroke="#9EBCD6" stroke-linejoin="round"/>
<path d="M342 268.299L336.435 269.132L334.879 276L333.586 269.442L328 267.986L333.683 265.919L335.239 261L336.926 266.403L342 268.299Z" stroke="#9EBCD6" stroke-linejoin="round"/>
<path d="M374 126.299L368.435 127.132L366.879 134L365.586 127.442L360 125.986L365.683 123.919L367.239 119L368.926 124.403L374 126.299Z" stroke="#9EBCD6" stroke-linejoin="round"/>
<path d="M55 381.758L48.2429 382.759L46.3528 391L44.7833 383.13L38 381.383L44.9005 378.903L46.7907 373L48.8391 379.484L55 381.758Z" stroke="#9EBCD6" stroke-linejoin="round"/>
<path d="M205 90.7314L197.448 91.8431L195.336 101L193.581 92.2557L186 90.3142L193.712 87.5589L195.825 81L198.114 88.2043L205 90.7314Z" stroke="#9EBCD6" stroke-linejoin="round"/>
<path d="M-13.1948 6.12107C4.38356 -3.6854 16.5894 -5.28783 19.5294 -5.95199C22.4694 -6.61615 11.3971 -0.297314 -2.0215 7.27513C5.90792 4.39844 24.0221 -3.06207 27.5764 -3.69274C31.1307 -4.32342 3.90577 10.0732 6.29374 9.60968C8.68172 9.14614 32.4044 -2.79495 29.8007 0.333666C27.1969 3.46228 14.7454 18.8164 -3.51448 24.4627C-21.7743 30.1089 -24.6582 12.5162 -13.1948 6.12107Z" stroke="#9EBCD6"/>
<path d="M386.805 6.12107C404.384 -3.6854 416.589 -5.28783 419.529 -5.95199C422.469 -6.61615 411.397 -0.297314 397.978 7.27513C405.908 4.39844 424.022 -3.06207 427.576 -3.69274C431.131 -4.32342 403.906 10.0732 406.294 9.60968C408.682 9.14614 432.404 -2.79495 429.801 0.333666C427.197 3.46228 414.745 18.8164 396.486 24.4627C378.226 30.1089 375.342 12.5162 386.805 6.12107Z" stroke="#9EBCD6"/>
<path d="M394.551 20.7502C392.196 22.8675 387.858 24.1444 384.295 20.7502C380.732 17.356 383.902 8.93649 389.304 8.7012C398.012 8.32186 397.493 18.1035 394.551 20.7502Z" stroke="#9EBCD6"/>
<path d="M127.32 216.936C145.044 208.834 165.257 204.578 168.222 204.03C171.186 203.481 155.032 210.68 141.502 216.936C149.497 214.559 163.707 209.349 167.291 208.828C170.874 208.307 143.424 220.201 145.832 219.818C148.239 219.435 173.263 212.108 168.222 215C163.18 217.892 152.198 223.91 133.82 231C121.32 235.823 115.761 222.22 127.32 216.936Z" stroke="#9EBCD6" stroke-linejoin="round"/>
<path d="M132.05 227.669C130.503 229.015 127.653 229.827 125.313 227.669C122.972 225.51 125.054 220.156 128.603 220.007C134.324 219.766 133.983 225.986 132.05 227.669Z" stroke="#9EBCD6"/>
<path d="M71.1754 184.248L70.9213 184.679L71.1754 184.248ZM83.446 190.089L83.5082 190.585C83.7433 190.555 83.9254 190.365 83.9444 190.129C83.9634 189.893 83.8141 189.675 83.5867 189.609L83.446 190.089ZM67.9349 190.855L67.6193 191.242L67.9349 190.855ZM59.0953 181.003L59.5474 181.217L59.0953 181.003ZM61.9944 175.648L62.4297 175.894L61.9944 175.648ZM87.4542 191.33L87.9407 191.445L87.4542 191.33ZM70.9213 184.679C74.6933 186.904 77.8394 188.965 83.3053 190.568L83.5867 189.609C78.2615 188.047 75.2235 186.056 71.4294 183.818L70.9213 184.679ZM83.3838 189.592C81.4375 189.836 78.9403 189.316 76.4828 188.546C74.0382 187.779 71.7114 186.792 70.1061 186.149L69.7345 187.078C71.3153 187.71 73.6917 188.719 76.1836 189.5C78.6626 190.277 81.3352 190.857 83.5082 190.585L83.3838 189.592ZM67.6193 191.242C71.2566 194.203 77.2398 196.303 82.7094 197.697C88.1964 199.095 93.2612 199.806 95.1329 199.944L95.2067 198.947C93.4009 198.813 88.3944 198.114 82.9564 196.728C77.501 195.338 71.7055 193.279 68.2506 190.467L67.6193 191.242ZM92.4617 185.543C89.9444 185.19 86.654 184.041 83.3025 182.739C79.9806 181.448 76.5937 180.004 73.9731 179.116L73.6523 180.063C76.2472 180.942 79.5675 182.36 82.9403 183.671C86.2834 184.97 89.6752 186.162 92.3229 186.533L92.4617 185.543ZM68.2506 190.467C64.7193 187.593 62.4464 185.342 61.1062 183.728C60.4346 182.92 60.0088 182.285 59.7743 181.823C59.6567 181.592 59.5957 181.42 59.5707 181.303C59.5434 181.175 59.5705 181.168 59.5474 181.217L58.6433 180.79C58.5309 181.027 58.5455 181.29 58.5927 181.511C58.6421 181.743 58.7423 182 58.8826 182.276C59.1638 182.83 59.6405 183.529 60.337 184.367C61.7328 186.048 64.0584 188.344 67.6193 191.242L68.2506 190.467ZM59.5474 181.217C59.5001 181.317 59.4209 181.381 59.3487 181.413C59.2869 181.44 59.2413 181.44 59.2366 181.44C59.2307 181.44 59.2686 181.442 59.3718 181.474C59.568 181.536 59.8625 181.665 60.2486 181.86C61.0133 182.247 62.0441 182.841 63.1807 183.507C65.4258 184.822 68.0967 186.422 69.7345 187.078L70.1061 186.149C68.5578 185.529 65.9766 183.985 63.686 182.644C62.5547 181.982 61.4967 181.371 60.6995 180.968C60.3047 180.768 59.9499 180.608 59.6721 180.52C59.5382 180.478 59.3829 180.44 59.233 180.44C59.0982 180.441 58.7896 180.48 58.6433 180.79L59.5474 181.217ZM71.4294 183.818C69.5849 182.73 67.2215 180.785 65.3616 179.014C64.4334 178.13 63.6439 177.302 63.1151 176.658C62.8487 176.334 62.6615 176.073 62.5549 175.883C62.5007 175.787 62.4795 175.731 62.4734 175.708C62.463 175.669 62.5022 175.766 62.4297 175.894L61.559 175.402C61.4367 175.619 61.4746 175.843 61.5071 175.965C61.544 176.104 61.6102 176.244 61.6837 176.374C61.8326 176.639 62.0624 176.952 62.3426 177.293C62.9068 177.98 63.728 178.839 64.672 179.738C66.5565 181.533 68.9828 183.535 70.9213 184.679L71.4294 183.818ZM62.4297 175.894C62.383 175.977 62.3177 176.003 62.3092 176.006C62.3066 176.007 62.3362 175.997 62.4178 175.999C62.5809 176.002 62.8337 176.045 63.1842 176.137C63.8772 176.321 64.8267 176.665 65.9483 177.101C68.1695 177.964 71.0311 179.175 73.6523 180.063L73.9731 179.116C71.379 178.237 68.5736 177.049 66.3107 176.169C65.1902 175.733 64.1933 175.37 63.4398 175.171C63.067 175.072 62.7216 175.005 62.437 174.999C62.2947 174.996 62.1381 175.008 61.9901 175.058C61.8362 175.11 61.6663 175.213 61.559 175.402L62.4297 175.894ZM73.3776 179.343L70.7403 184.002L71.6105 184.495L74.2478 179.836L73.3776 179.343ZM68.3878 191.067L70.3731 186.825L69.4674 186.401L67.4821 190.643L68.3878 191.067ZM89.5394 185.291C89.0854 185.082 89.0853 185.082 89.0853 185.082C89.0853 185.082 89.0853 185.082 89.0852 185.082C89.0852 185.082 89.0851 185.083 89.085 185.083C89.0847 185.083 89.0844 185.084 89.0841 185.085C89.0833 185.087 89.0822 185.089 89.0808 185.092C89.078 185.098 89.074 185.107 89.0687 185.118C89.0583 185.142 89.043 185.175 89.0234 185.22C88.9842 185.308 88.9277 185.436 88.8578 185.6C88.718 185.927 88.5243 186.395 88.3073 186.962C87.8739 188.093 87.3445 189.625 86.9677 191.215L87.9407 191.445C88.3036 189.915 88.8167 188.427 89.2411 187.319C89.4529 186.766 89.6418 186.31 89.7774 185.993C89.8452 185.834 89.8996 185.71 89.9369 185.626C89.9556 185.584 89.9699 185.553 89.9795 185.531C89.9843 185.521 89.9879 185.513 89.9902 185.508C89.9914 185.505 89.9923 185.503 89.9928 185.502C89.9931 185.502 89.9933 185.501 89.9934 185.501C89.9934 185.501 89.9935 185.501 89.9935 185.501C89.9935 185.501 89.9935 185.501 89.9935 185.501C89.9935 185.501 89.9935 185.501 89.5394 185.291ZM86.9677 191.215C86.592 192.8 86.3189 194.581 86.14 195.96C86.0504 196.651 85.984 197.243 85.9401 197.663C85.9181 197.874 85.9016 198.041 85.8907 198.156C85.8852 198.213 85.8811 198.257 85.8784 198.288C85.877 198.303 85.876 198.314 85.8753 198.322C85.8749 198.326 85.8747 198.329 85.8745 198.331C85.8744 198.332 85.8743 198.333 85.8743 198.333C85.8743 198.334 85.8742 198.334 85.8742 198.334C85.8742 198.334 85.8742 198.334 85.8742 198.334C85.8742 198.334 85.8742 198.334 86.3723 198.378C86.8704 198.421 86.8704 198.421 86.8704 198.421C86.8704 198.421 86.8704 198.421 86.8704 198.421C86.8704 198.421 86.8704 198.421 86.8705 198.421C86.8705 198.42 86.8706 198.42 86.8706 198.419C86.8708 198.417 86.871 198.414 86.8713 198.411C86.872 198.404 86.873 198.393 86.8743 198.378C86.8769 198.349 86.8809 198.306 86.8862 198.25C86.8969 198.138 86.913 197.974 86.9346 197.768C86.9779 197.354 87.0433 196.77 87.1317 196.089C87.3089 194.724 87.5767 192.981 87.9407 191.445L86.9677 191.215Z" fill="#9EBCD6"/>
<path d="M110.569 187.525C110.312 187.626 110.186 187.917 110.288 188.174C110.39 188.43 110.681 188.556 110.937 188.454L110.569 187.525ZM124.678 177.729C124.759 177.465 124.609 177.186 124.345 177.105C124.081 177.025 123.802 177.175 123.721 177.439L124.678 177.729ZM117.23 177.049C117.213 176.774 116.976 176.564 116.7 176.581C116.425 176.599 116.215 176.836 116.232 177.111L117.23 177.049ZM113.631 179.214L113.662 179.713L113.662 179.713L113.631 179.214ZM111.029 179.592L111.527 179.639L111.029 179.592ZM110.713 181.849L110.36 182.202L110.713 181.849ZM105.725 183.532C105.672 183.803 105.849 184.066 106.12 184.118C106.391 184.171 106.654 183.994 106.707 183.723L105.725 183.532ZM108.411 176.184L108.825 175.903L108.825 175.903L108.411 176.184ZM123.862 178.513L123.556 178.909C123.676 179.001 123.831 179.034 123.978 178.999C124.125 178.964 124.248 178.865 124.313 178.728L123.862 178.513ZM123.887 178.46L123.436 178.245L123.436 178.245L123.887 178.46ZM123.742 166.489L124.204 166.299L123.742 166.489ZM117.845 168.833L117.383 169.023L117.845 168.833ZM118.388 177.294C118.474 177.032 118.33 176.75 118.068 176.664C117.805 176.579 117.523 176.722 117.437 176.985L118.388 177.294ZM118.498 179.488C118.755 179.589 119.045 179.463 119.146 179.206C119.248 178.949 119.122 178.659 118.865 178.558L118.498 179.488ZM110.937 188.454C112.959 187.652 115.996 186.219 118.717 184.383C121.411 182.564 123.906 180.276 124.678 177.729L123.721 177.439C123.058 179.629 120.828 181.751 118.157 183.554C115.512 185.34 112.544 186.741 110.569 187.525L110.937 188.454ZM116.232 177.111C116.23 177.073 116.242 177.075 116.214 177.133C116.188 177.186 116.139 177.261 116.062 177.353C115.908 177.536 115.674 177.748 115.388 177.952C114.803 178.371 114.109 178.683 113.6 178.715L113.662 179.713C114.441 179.664 115.317 179.232 115.97 178.765C116.304 178.527 116.606 178.26 116.828 177.996C116.939 177.864 117.039 177.722 117.111 177.574C117.181 177.432 117.243 177.249 117.23 177.049L116.232 177.111ZM113.6 178.715C113.299 178.734 113.005 178.711 112.717 178.675C112.455 178.643 112.131 178.589 111.889 178.568C111.649 178.548 111.325 178.54 111.046 178.689C110.711 178.868 110.565 179.193 110.531 179.545L111.527 179.639C111.54 179.5 111.57 179.543 111.516 179.572C111.51 179.575 111.524 179.566 111.577 179.561C111.63 179.556 111.704 179.556 111.806 179.565C112.03 179.584 112.253 179.625 112.594 179.667C112.909 179.706 113.273 179.737 113.662 179.713L113.6 178.715ZM110.531 179.545C110.503 179.845 110.53 180.206 110.562 180.529C110.597 180.877 110.637 181.177 110.656 181.443C110.665 181.571 110.667 181.668 110.662 181.735C110.657 181.824 110.644 181.787 110.689 181.718C110.721 181.67 110.786 181.599 110.895 181.564C111 181.53 111.086 181.548 111.124 181.561C111.177 181.578 111.163 181.591 111.067 181.495L110.36 182.202C110.476 182.318 110.628 182.45 110.81 182.51C110.912 182.544 111.052 182.564 111.204 182.515C111.359 182.465 111.463 182.362 111.526 182.266C111.633 182.102 111.653 181.91 111.66 181.799C111.669 181.665 111.663 181.517 111.653 181.372C111.633 181.091 111.587 180.73 111.558 180.43C111.525 180.105 111.509 179.832 111.527 179.639L110.531 179.545ZM111.067 181.495C110.68 181.108 110.494 180.752 110.236 180.396C110.123 180.24 109.965 180.042 109.742 179.923C109.479 179.781 109.194 179.782 108.918 179.892L109.286 180.822C109.331 180.804 109.303 180.822 109.269 180.804C109.268 180.803 109.282 180.81 109.312 180.841C109.342 180.872 109.378 180.917 109.426 180.983C109.601 181.224 109.899 181.742 110.36 182.202L111.067 181.495ZM108.918 179.892C108.235 180.163 106.176 181.217 105.725 183.532L106.707 183.723C107.055 181.933 108.684 181.061 109.286 180.822L108.918 179.892ZM118.753 170.001C116.688 170.662 113.788 171.724 111.522 172.814C110.396 173.356 109.394 173.92 108.731 174.461C108.403 174.728 108.117 175.021 107.957 175.339C107.784 175.682 107.744 176.091 107.998 176.465L108.825 175.903C108.819 175.894 108.818 175.889 108.818 175.889C108.817 175.889 108.817 175.889 108.817 175.889C108.817 175.889 108.817 175.888 108.817 175.886C108.817 175.881 108.819 175.851 108.849 175.79C108.916 175.658 109.074 175.471 109.363 175.235C109.931 174.772 110.846 174.249 111.956 173.715C114.165 172.652 117.018 171.607 119.058 170.954L118.753 170.001ZM107.998 176.465C108.412 177.074 109.182 177.487 110.085 177.743C111.005 178.004 112.141 178.123 113.392 178.084C115.895 178.006 118.925 177.288 121.722 175.692L121.226 174.824C118.58 176.334 115.712 177.011 113.361 177.085C112.185 177.122 111.155 177.007 110.357 176.781C109.542 176.55 109.044 176.225 108.825 175.903L107.998 176.465ZM124.313 178.728L124.338 178.675L123.436 178.245L123.41 178.298L124.313 178.728ZM124.338 178.675C124.906 177.486 125.585 176.069 125.755 174.099C125.924 172.128 125.583 169.648 124.204 166.299L123.28 166.68C124.614 169.921 124.911 172.239 124.758 174.013C124.606 175.786 124.001 177.06 123.436 178.245L124.338 178.675ZM124.204 166.299C123.344 164.208 122.615 162.968 121.984 162.371C121.668 162.071 121.295 161.856 120.883 161.895C120.458 161.936 120.175 162.227 120.004 162.515C119.67 163.073 119.54 163.952 119.53 164.758C119.52 165.577 119.631 166.459 119.88 167.065L120.805 166.684C120.628 166.253 120.52 165.523 120.53 164.771C120.54 164.005 120.669 163.35 120.862 163.028C120.954 162.874 121.002 162.889 120.978 162.891C120.967 162.892 121.066 162.878 121.296 163.097C121.759 163.534 122.421 164.594 123.28 166.68L124.204 166.299ZM120.805 166.684C120.497 165.935 120.048 165.403 119.521 165.131C118.982 164.854 118.388 164.867 117.9 165.174C116.93 165.781 116.664 167.278 117.383 169.023L118.307 168.643C117.659 167.067 118.087 166.236 118.431 166.021C118.599 165.915 118.816 165.893 119.063 166.02C119.321 166.153 119.634 166.466 119.88 167.065L120.805 166.684ZM117.383 169.023C118.246 171.12 119.296 173.206 120.37 174.953C121.435 176.687 122.551 178.134 123.556 178.909L124.167 178.117C123.312 177.458 122.273 176.141 121.222 174.43C120.179 172.733 119.152 170.695 118.307 168.643L117.383 169.023ZM117.437 176.985C117.364 177.21 117.374 177.464 117.405 177.675C117.438 177.9 117.503 178.139 117.59 178.364C117.676 178.587 117.79 178.812 117.927 179.004C118.056 179.184 118.244 179.388 118.498 179.488L118.865 178.558C118.874 178.561 118.824 178.539 118.74 178.421C118.663 178.314 118.587 178.168 118.523 178.004C118.46 177.84 118.415 177.673 118.395 177.532C118.385 177.461 118.381 177.403 118.382 177.358C118.383 177.311 118.389 177.293 118.388 177.294L117.437 176.985Z" fill="#9EBCD6"/>
<path d="M110.45 196.516L110.621 196.986L110.45 196.516ZM112.037 188.813L111.862 189.282L111.862 189.282L112.037 188.813ZM104.062 180.954L104.312 180.521L104.312 180.521L104.062 180.954ZM95.125 179.463L95.1457 178.963L95.1457 178.963L95.125 179.463ZM92.3159 185.205L92.815 185.174C92.8142 185.161 92.813 185.149 92.8113 185.137L92.3159 185.205ZM95.3675 199.196L95.8622 199.124L95.8528 199.06L95.8274 199L95.3675 199.196ZM100.353 185.389C100.601 185.267 100.703 184.967 100.581 184.72C100.458 184.472 100.159 184.37 99.911 184.492L100.353 185.389ZM97.46 184.72L97.6722 184.267C97.5178 184.195 97.3371 184.206 97.193 184.297C97.0488 184.388 96.961 184.546 96.9601 184.717L97.46 184.72ZM93.2412 190.884C92.9676 190.921 92.7762 191.173 92.8137 191.447C92.8512 191.721 93.1034 191.912 93.3769 191.874L93.2412 190.884ZM99.7593 196.146L99.2841 196.301C99.3291 196.439 99.4317 196.55 99.5653 196.607C99.6989 196.663 99.8503 196.658 99.9803 196.594L99.7593 196.146ZM105.506 194.313C105.782 194.327 106.016 194.114 106.03 193.839C106.044 193.563 105.831 193.328 105.555 193.315L105.506 194.313ZM103.396 185.048C103.578 184.841 103.559 184.525 103.352 184.343C103.144 184.16 102.829 184.18 102.646 184.387L103.396 185.048ZM100.972 187.039L100.597 186.709C100.49 186.83 100.448 186.996 100.485 187.154L100.972 187.039ZM106.339 192.219C106.613 192.185 106.809 191.936 106.775 191.662C106.742 191.388 106.493 191.193 106.218 191.226L106.339 192.219ZM110.621 196.986C112.152 196.428 113.203 195.681 113.861 194.825C114.523 193.964 114.764 193.022 114.72 192.129C114.675 191.243 114.351 190.417 113.899 189.76C113.451 189.108 112.85 188.584 112.212 188.345L111.862 189.282C112.259 189.43 112.71 189.795 113.075 190.326C113.437 190.852 113.687 191.502 113.721 192.179C113.754 192.847 113.577 193.552 113.068 194.215C112.555 194.883 111.682 195.535 110.279 196.046L110.621 196.986ZM112.212 188.345C109.825 187.453 108.081 185.677 106.831 184.032C106.207 183.212 105.714 182.435 105.325 181.824C105.133 181.523 104.96 181.252 104.811 181.043C104.737 180.939 104.662 180.84 104.588 180.757C104.519 180.68 104.426 180.587 104.312 180.521L103.811 181.386C103.787 181.372 103.795 181.371 103.841 181.422C103.881 181.467 103.932 181.533 103.997 181.624C104.127 181.807 104.285 182.053 104.482 182.361C104.869 182.97 105.383 183.779 106.035 184.637C107.336 186.349 109.22 188.294 111.862 189.282L112.212 188.345ZM104.312 180.521C104.167 180.437 103.954 180.362 103.734 180.296C103.499 180.226 103.209 180.151 102.88 180.075C102.222 179.922 101.387 179.758 100.488 179.604C98.695 179.297 96.616 179.024 95.1457 178.963L95.1043 179.962C96.5122 180.021 98.5429 180.286 100.319 180.59C101.205 180.742 102.02 180.902 102.655 181.049C102.972 181.123 103.24 181.192 103.446 181.254C103.666 181.32 103.777 181.367 103.811 181.386L104.312 180.521ZM95.1457 178.963C94.2511 178.926 93.5682 179.308 93.0774 179.884C92.6019 180.442 92.3067 181.178 92.1203 181.893C91.7487 183.317 91.7624 184.848 91.8205 185.272L92.8113 185.137C92.7707 184.84 92.7498 183.441 93.0879 182.145C93.2564 181.499 93.502 180.927 93.8385 180.533C94.1596 180.156 94.5598 179.94 95.1043 179.962L95.1457 178.963ZM94.8727 199.269C94.9677 199.92 95.2311 200.442 95.6663 200.812C96.0941 201.176 96.6389 201.351 97.2244 201.409C98.3773 201.523 99.845 201.195 101.376 200.697C102.923 200.194 104.606 199.494 106.21 198.809C107.824 198.119 109.351 197.448 110.621 196.986L110.279 196.046C108.976 196.521 107.412 197.208 105.817 197.889C104.212 198.575 102.567 199.259 101.067 199.746C99.5521 200.238 98.2545 200.506 97.3227 200.414C96.8659 200.369 96.5386 200.241 96.3143 200.05C96.0975 199.866 95.929 199.582 95.8622 199.124L94.8727 199.269ZM91.8169 185.235C91.9823 187.921 92.8272 194.514 94.9075 199.393L95.8274 199C93.8125 194.276 92.9776 187.814 92.815 185.174L91.8169 185.235ZM99.911 184.492C99.5401 184.675 99.2973 184.737 99.0217 184.718C98.7204 184.697 98.3287 184.575 97.6722 184.267L97.2479 185.172C97.9244 185.489 98.4563 185.681 98.9516 185.716C99.4725 185.752 99.8992 185.613 100.353 185.389L99.911 184.492ZM96.9601 184.717C96.9553 185.552 97.0725 189.132 97.1311 190.805L98.1305 190.769C98.0714 189.083 97.9554 185.532 97.96 184.723L96.9601 184.717ZM93.3769 191.874L97.6987 191.282L97.563 190.292L93.2412 190.884L93.3769 191.874ZM97.1521 190.931C97.4309 191.856 97.8484 192.835 98.2489 193.756C98.6554 194.69 99.0407 195.557 99.2841 196.301L100.235 195.99C99.9727 195.19 99.5628 194.269 99.1659 193.357C98.763 192.431 98.3689 191.503 98.1096 190.643L97.1521 190.931ZM99.9803 196.594C100.166 196.503 100.497 196.285 100.855 196.06C101.237 195.821 101.704 195.536 102.222 195.265C103.275 194.714 104.463 194.262 105.506 194.313L105.555 193.315C104.233 193.25 102.845 193.811 101.759 194.379C101.207 194.668 100.713 194.968 100.324 195.213C99.9116 195.472 99.6622 195.636 99.5383 195.697L99.9803 196.594ZM102.646 184.387L100.597 186.709L101.347 187.37L103.396 185.048L102.646 184.387ZM100.485 187.154C100.649 187.848 100.905 189 101.186 189.969C101.326 190.451 101.478 190.912 101.637 191.257C101.715 191.427 101.807 191.597 101.916 191.73C102.005 191.84 102.215 192.059 102.538 192.039L102.475 191.041C102.666 191.029 102.74 191.158 102.69 191.098C102.66 191.061 102.61 190.981 102.546 190.84C102.419 190.564 102.283 190.162 102.146 189.691C101.875 188.753 101.627 187.638 101.458 186.925L100.485 187.154ZM102.538 192.039C103.109 192.004 103.709 192.078 104.364 192.153C104.996 192.225 105.684 192.299 106.339 192.219L106.218 191.226C105.698 191.289 105.125 191.233 104.477 191.159C103.851 191.087 103.153 190.999 102.475 191.041L102.538 192.039Z" fill="#9EBCD6"/>
<path d="M129.583 185.148C123.359 190.865 114.435 192.037 108.146 186.487C101.856 180.937 101.948 172.561 106.807 165.049C111.666 157.538 121.955 158.161 128.244 163.711C135.873 170.443 135.808 179.431 129.583 185.148Z" stroke="#9EBCD6"/>
<path d="M111.008 188.471C116.078 189.501 121.589 187.716 125.84 183.812C132.065 178.095 132.13 169.106 124.501 162.374C123.369 161.375 122.107 160.536 120.771 159.875" stroke="#9EBCD6"/>
<circle cx="405" cy="264" r="35" stroke="#9EBCD6"/>
<path d="M428.287 237.91C414.398 247.179 390.944 255.558 371.783 252.652M420.331 232.544C412.548 240.617 401.992 241.931 393.737 240.671C388.986 239.946 384.145 239.207 379.198 240.216M370.008 264.396C372.964 263.744 375.877 263.628 378.78 263.733C380.805 263.805 382.825 263.984 384.849 264.164C392.787 264.868 400.802 265.579 409.541 259.858C415.277 256.11 421.759 253.655 428.538 252.663C431.638 252.188 434.779 252.053 437.908 252.261M370.172 260.542C372.126 260.278 374.934 260.051 379.047 260.014C383.012 259.985 388.192 260.109 394.991 260.513C399.956 260.81 405.533 257.305 411.475 253.57C415.645 250.95 419.993 248.218 424.436 246.606C427.78 245.393 431.177 244.812 434.59 245.393M370.515 270.419C376.474 268.702 391.505 268.977 410.021 267.648C428.538 266.318 435.132 263.26 439.725 260.223M439.907 265.086C431.645 267.783 388.337 281.6 373.65 279.717M379.84 288.376C393.057 292.396 403.811 286.654 413.811 281.314C422.152 276.861 429.968 272.688 438.251 274.693M386.177 293.537C389.651 293.494 393.385 293.744 397.209 294C407.747 294.706 419.745 295.427 428.146 290.217M415.69 262.597C414.586 259.692 432.067 255.069 432.535 258.152C433.639 261.07 416.168 265.68 415.69 262.597Z" stroke="#9EBCD6"/>
<circle cx="5" cy="264" r="35" stroke="#9EBCD6"/>
<path d="M28.2875 237.91C14.3984 247.179 -9.05555 255.558 -28.2171 252.652M20.3313 232.544C12.5479 240.617 1.99212 241.931 -6.26344 240.671C-11.0136 239.946 -15.855 239.207 -20.8024 240.216M-29.9922 264.396C-27.0363 263.744 -24.1228 263.628 -21.2197 263.733C-19.1947 263.805 -17.1754 263.984 -15.1512 264.164C-7.21301 264.868 0.801546 265.579 9.54062 259.858C15.2765 256.11 21.7589 253.655 28.5384 252.663C31.6375 252.188 34.7793 252.053 37.9078 252.261M-29.8284 260.542C-27.8737 260.278 -25.0658 260.051 -20.953 260.014C-16.988 259.985 -11.8081 260.109 -5.00881 260.513C-0.0443775 260.81 5.5331 257.305 11.4754 253.57C15.6446 250.95 19.9934 248.218 24.4361 246.606C27.7802 245.393 31.1772 244.812 34.5901 245.393M-29.485 270.419C-23.5257 268.702 -8.49546 268.977 10.0214 267.648C28.5384 266.318 35.1316 263.26 39.7252 260.223M39.9075 265.086C31.6449 267.783 -11.6627 281.6 -26.3495 279.717M-20.1605 288.376C-6.9434 292.396 3.81108 286.654 13.8113 281.314C22.1522 276.861 29.9685 272.688 38.2512 274.693M-13.8235 293.537C-10.3492 293.494 -6.61537 293.744 -2.79103 294C7.74668 294.706 19.7452 295.427 28.1457 290.217M15.6901 262.597C14.586 259.692 32.0675 255.069 32.535 258.152C33.6392 261.07 16.1682 265.68 15.6901 262.597Z" stroke="#9EBCD6"/>
<path d="M180.219 259C188.64 265.741 191.853 276.769 186.075 285.781C180.296 294.793 169.714 296.305 159.294 291.636C148.874 286.967 147.66 273.868 153.439 264.856C160.448 253.924 171.798 252.26 180.219 259Z" stroke="#9EBCD6"/>
<path d="M180.34 269.213C182.222 268.837 185.374 272.481 182.786 273.918C181.093 274.859 179.587 273.918 178.834 272.977C178.082 272.036 178.458 269.589 180.34 269.213Z" stroke="#9EBCD6"/>
<path d="M177.846 282.951C177.141 284.926 181.093 284.573 181.093 282.951C181.093 281.329 178.787 280.316 177.846 282.951Z" stroke="#9EBCD6"/>
<path d="M177.141 266.39C173.941 267.519 172.059 266.39 172.436 263.379C172.315 261.497 175.259 260.556 177.141 261.309C179.023 262.062 180.34 265.261 177.141 266.39Z" stroke="#9EBCD6"/>
<path d="M350.152 167.307C343.196 170.023 335.472 168.132 332.069 161.548C328.666 154.964 331.423 148.096 337.829 143.465C344.235 138.834 352.509 142.64 355.912 149.224C360.04 157.21 357.109 164.592 350.152 167.307Z" stroke="#9EBCD6"/>
<path d="M343.987 153.845C343.562 155.103 340.286 155.732 340.32 153.683C340.342 152.342 341.427 151.765 342.252 151.639C343.077 151.514 344.413 152.586 343.987 153.845Z" stroke="#9EBCD6"/>
<path d="M346.787 152.904C347.218 150.595 348.546 149.857 350.221 151.125C351.391 151.704 350.937 153.795 349.834 154.663C348.731 155.53 346.357 155.213 346.787 152.904Z" stroke="#9EBCD6"/>
<path d="M384.185 76.78C381.251 77.9251 377.994 77.1277 376.559 74.3514C375.124 71.575 376.287 68.6788 378.988 66.726C381.689 64.7731 385.178 66.3783 386.613 69.1547C388.354 72.5223 387.118 75.6349 384.185 76.78Z" stroke="#9EBCD6"/>
<path d="M98.6339 51.3109C98.7845 50.5579 101.477 49.0477 106.447 49.0479C111.313 49.0482 105.863 55.8295 102.7 55.3776" stroke="#9EBCD6"/>
<path d="M90.8159 42.5891C85.1887 37.8266 79.7132 34.451 76.6255 32.782C75.0685 32.029 72.0593 36.0933 71.3886 38.8655C70.9889 40.5174 72.5218 41.6177 73.0109 40.915C73.4999 40.2123 71.8702 39.2485 69.4458 41.2939C66.75 43.5684 63.9201 48.3113 64.5144 49.4286L64.719 49.8134C67.5691 55.1751 68.4614 56.8538 74.8182 62.1511C79.2506 65.8448 84.7566 68.4648 89.8003 70.1575M95.0251 46.1508C96.7033 47.6211 98.2427 49.0057 99.7201 50.4182M92.4912 70.9883C95.6443 71.8776 98.4809 72.3823 100.573 72.5432C106.446 72.9951 115.935 70.7359 106.446 57.6328C105.704 56.7368 104.976 55.893 104.253 55.0867" stroke="#9EBCD6"/>
<path d="M88.8254 66.6694C90.1687 67.3589 90.0907 69.2905 89.7292 70.7363C89.2774 72.5437 84.173 78.576 90.1809 81.58C95.6028 84.291 92.4401 73.0511 92.4401 71.1882C92.4401 70.273 92.5971 68.3303 94.3779 68.9779" stroke="#9EBCD6" stroke-linecap="round"/>
<path d="M100.143 65.345C101.499 64.3884 103.637 61.7286 103.758 59.0194C99.4618 55.5469 86.1996 54.9568 100.143 65.345Z" stroke="#9EBCD6" stroke-linejoin="round"/>
<path d="M106.466 63.5687C106.737 63.3401 106.773 63.0193 106.622 62.7978C106.471 62.5763 106.095 62.6033 105.71 62.8259C105.326 63.0485 105.265 63.3493 105.326 63.4923C105.387 63.6354 106.196 63.7973 106.466 63.5687Z" stroke="#9EBCD6" stroke-linecap="round"/>
<path d="M104.577 66.7114C104.739 66.3876 104.6 66.0072 104.38 65.8547C104.159 65.7022 103.686 65.8337 103.534 66.0544C103.506 66.0942 103.483 66.1246 103.456 66.1611L103.456 66.1611C103.436 66.1877 103.414 66.2176 103.385 66.2566C103.214 66.5568 103.304 66.7931 103.52 66.9509C103.737 67.1086 104.415 67.0352 104.577 66.7114Z" stroke="#9EBCD6" stroke-linecap="round"/>
<path d="M92.4047 51.9969C89.9093 51.9969 86.0791 49.5221 86.0791 47.0267C86.0791 44.5313 88.102 42.5084 90.5974 42.5084C93.0928 42.5084 95.1157 44.5313 95.1157 47.0267C95.1157 49.5221 94.9001 51.9969 92.4047 51.9969Z" stroke="#9EBCD6"/>
<path d="M70.6994 54.0828C70.3777 52.6529 71.3573 50.1266 72.843 49.7924C74.3286 49.4582 75.7937 50.3465 76.1153 51.7764C76.437 53.2064 75.4934 54.6365 74.0078 54.9706C72.5221 55.3048 71.021 55.5127 70.6994 54.0828Z" stroke="#9EBCD6"/>
<path d="M79.858 56.274C79.6464 55.3332 79.8469 53.7709 80.3765 53.6518C80.9062 53.5326 81.5072 54.1987 81.7189 55.1395C81.9305 56.0804 81.6726 56.9396 81.1429 57.0588C80.6132 57.1779 80.0696 57.2148 79.858 56.274Z" stroke="#9EBCD6"/>
<path d="M54.1141 23C56.0098 24.1594 65.2332 30.6089 69.6079 33.6887C69.6079 35.5003 63.4104 41.4787 61.5876 41.1164C60.1293 40.8265 49.9216 30.2466 45 24.9928C46.3367 25.7175 50.5049 27.9277 56.4837 30.9712C54.4422 28.7972 53.2026 26.8044 52.8381 26.0798C53.5672 26.5025 56.0827 28.0726 60.3116 30.9712C59.5825 30.0654 57.3222 27.203 54.1141 23Z" stroke="#9EBCD6"/>
<path d="M220.575 7.4465C219.828 18.2217 211.776 26.3536 203.527 25.9882C197.455 25.7192 192.94 22.8083 189.004 19.8677M198.316 -4.44858C200.431 -3.00192 202.256 -1.75952 202.761 -1.4344C209.29 2.77054 211.162 3.97577 210.071 11.2432C210.144 11.2324 210.217 11.2192 210.289 11.2037M198.316 -4.44858C198.574 -6.00629 199.12 -9.0818 199.345 -9.52394M198.316 -4.44858C196.737 -5.52886 194.996 -6.72294 193.522 -7.73414L193.521 -7.73479C192.018 -8.76522 190.793 -9.60569 190.299 -9.94162L189.876 -16.0543M185.524 12.0594L185.261 14.4583M175.931 4.56935L176.746 10.7411C177.145 11.0277 179.591 12.8395 182.043 14.6604" stroke="#9EBCD6" stroke-linecap="round" stroke-linejoin="round"/>
<path d="M205.083 -15.1471C202.448 -17.0827 199.426 -19.1715 195.978 -21.456C193.675 -19.7039 192.108 -18.192 190.908 -17.0348C190.531 -16.672 190.191 -16.344 189.876 -16.0544C192.784 -14.2029 196.173 -11.9933 199.469 -9.70226M205.083 -15.1471C204.063 -14.4778 200.243 -10.6841 199.469 -9.70226M205.083 -15.1471C218.086 -5.59371 221.658 0.228993 220.575 7.44384C219.583 14.0544 215.023 20.7919 206.14 21.0708C199.744 21.2716 193.305 17.5985 185.588 11.9482M199.469 -9.70226C204.002 -6.55103 208.361 -3.24576 211.052 -0.506351C215.7 4.22467 212.606 13.2371 205.277 12.5394C200.965 12.129 195.439 8.69925 190.402 5.14585M190.402 5.14585C188.923 4.1021 187.486 3.04769 186.134 2.056C184.264 0.683846 182.558 -0.568225 181.129 -1.50581C178.993 0.37257 177.477 2.46058 176.553 3.73347C176.302 4.07891 176.095 4.36432 175.931 4.56921C176.321 4.87184 176.708 5.17208 177.091 5.46978C180.11 7.8128 182.925 9.99827 185.588 11.9482M190.402 5.14585C189.739 5.82858 188.988 6.79531 188.263 7.81474C187.187 9.32892 186.17 10.9594 185.588 11.9482" stroke="#9EBCD6" stroke-linecap="round" stroke-linejoin="round"/>
<path d="M177.754 19.6343C177.034 21.6749 188.163 19.7985 192.038 19.6343C191.25 19.6343 186.259 15.4314 183.862 13.3299C180.512 15.5955 178.345 17.9596 177.754 19.6343Z" stroke="#9EBCD6" stroke-linecap="round"/>
<path d="M174.483 8.81397C171.995 7.08127 168.021 3.03185 164.248 -1.93337C165.719 -1.60874 168.304 0.103904 170.872 1.09486C169.52 -0.267471 167.034 -2.95028 165.768 -5.22196C168.614 -4.20638 170.507 -3.52901 172.319 -2.56964C171.607 -3.6157 171.267 -4.41557 170.345 -5.58285C173.67 -5.2521 176.397 -4.15479 178.94 -2.33523" stroke="#9EBCD6" stroke-linecap="round" stroke-linejoin="round"/>
<path d="M209.537 388.513C209.508 384.184 209.347 379.616 208.077 380.226C206.937 380.772 205.537 382.15 204.143 384.187" stroke="#9EBCD6" stroke-linecap="round"/>
<path d="M220.575 407.447C219.828 418.222 211.776 426.354 203.527 425.988C197.455 425.719 192.94 422.808 189.004 419.868M198.316 395.551C200.431 396.998 202.256 398.24 202.761 398.566C209.29 402.771 211.162 403.976 210.071 411.243C210.144 411.232 210.217 411.219 210.289 411.204M198.316 395.551C198.574 393.994 199.12 390.918 199.345 390.476M198.316 395.551C196.737 394.471 194.996 393.277 193.522 392.266L193.521 392.265C192.018 391.235 190.793 390.394 190.299 390.058L189.876 383.946M185.524 412.059L185.261 414.458M175.931 404.569L176.746 410.741C177.145 411.028 179.591 412.839 182.043 414.66" stroke="#9EBCD6" stroke-linecap="round" stroke-linejoin="round"/>
<path d="M205.083 384.853C202.448 382.917 199.426 380.829 195.978 378.544C193.675 380.296 192.108 381.808 190.908 382.965C190.531 383.328 190.191 383.656 189.876 383.946C192.784 385.797 196.173 388.007 199.469 390.298M205.083 384.853C204.063 385.522 200.243 389.316 199.469 390.298M205.083 384.853C218.086 394.406 221.658 400.229 220.575 407.444C219.583 414.054 215.023 420.792 206.14 421.071C199.744 421.272 193.305 417.599 185.588 411.948M199.469 390.298C204.002 393.449 208.361 396.754 211.052 399.494C215.7 404.225 212.606 413.237 205.277 412.539C200.965 412.129 195.439 408.699 190.402 405.146M190.402 405.146C188.923 404.102 187.486 403.048 186.134 402.056C184.264 400.684 182.558 399.432 181.129 398.494C178.993 400.373 177.477 402.461 176.553 403.733C176.302 404.079 176.095 404.364 175.931 404.569C176.321 404.872 176.708 405.172 177.091 405.47C180.11 407.813 182.925 409.998 185.588 411.948M190.402 405.146C189.739 405.829 188.988 406.795 188.263 407.815C187.187 409.329 186.17 410.959 185.588 411.948" stroke="#9EBCD6" stroke-linecap="round" stroke-linejoin="round"/>
<path d="M174.483 408.814C171.995 407.081 168.021 403.032 164.248 398.067C165.719 398.391 168.304 400.104 170.872 401.095C169.52 399.732 167.034 397.05 165.768 394.778C168.614 395.794 170.507 396.471 172.319 397.43C171.607 396.384 171.267 395.584 170.345 394.417C173.67 394.748 176.397 395.845 178.94 397.665" stroke="#9EBCD6" stroke-linecap="round" stroke-linejoin="round"/>
<path d="M188.364 388.558C186.037 386.615 182.065 383.635 178.739 378.36C180.176 378.812 181.554 378.874 184.026 380.085C182.797 378.61 181.579 376.823 179.948 373.832C182.694 375.092 185.481 375.916 187.202 377.03C186.584 375.925 184.284 374.284 183.468 373.041C186.751 373.66 191.403 375.806 193.777 377.841" stroke="#9EBCD6" stroke-linecap="round" stroke-linejoin="round"/>
<path d="M302.933 221.276L303.094 221.749L302.933 221.276ZM284.928 218.843L284.637 219.25L284.643 219.253L284.928 218.843ZM317.921 199.183L317.424 199.236L317.921 199.183ZM301.084 182.151L301.166 181.658L301.084 182.151ZM277.92 191.884L278.381 192.079L277.92 191.884ZM305.853 205.704L306.294 205.939L305.853 205.704ZM293.59 209.208L293.393 209.667L293.41 209.675L293.428 209.681L293.59 209.208ZM301.084 194.414L300.863 194.863L301.084 194.414ZM290.826 195.817L291.118 196.223L291.118 196.223L290.826 195.817ZM290.475 196.069L290.185 195.662H290.185L290.475 196.069ZM302.772 220.802C295.186 223.382 287.891 220.291 285.213 218.432L284.643 219.253C287.48 221.223 295.107 224.465 303.094 221.749L302.772 220.802ZM317.424 199.236C318.045 205.115 316.753 209.681 314.15 213.179C311.54 216.687 307.576 219.169 302.772 220.802L303.094 221.749C308.023 220.073 312.185 217.495 314.952 213.776C317.726 210.048 319.062 205.222 318.418 199.131L317.424 199.236ZM301.001 182.644C302.383 182.875 306.203 184.109 309.827 186.764C313.441 189.411 316.81 193.434 317.424 199.236L318.418 199.131C317.766 192.961 314.177 188.711 310.418 185.957C306.67 183.211 302.704 181.914 301.166 181.658L301.001 182.644ZM278.381 192.079C280.43 187.235 285.298 184.74 290.135 183.524C294.965 182.311 299.616 182.413 301.001 182.644L301.166 181.658C299.632 181.402 294.842 181.311 289.891 182.554C284.947 183.797 279.693 186.41 277.46 191.689L278.381 192.079ZM285.218 218.436C277.244 212.74 274.185 201.996 278.381 192.079L277.46 191.689C273.091 202.015 276.261 213.267 284.637 219.25L285.218 218.436ZM305.411 205.469C304.339 207.48 302.286 208.589 300.024 209.046C297.759 209.503 295.368 209.289 293.752 208.735L293.428 209.681C295.218 210.294 297.79 210.518 300.222 210.026C302.655 209.534 305.031 208.307 306.294 205.939L305.411 205.469ZM300.863 194.863C303.367 196.091 305.039 197.743 305.819 199.563C306.593 201.369 306.515 203.4 305.411 205.469L306.294 205.939C307.526 203.628 307.642 201.279 306.738 199.169C305.839 197.071 303.958 195.268 301.304 193.965L300.863 194.863ZM291.118 196.223C292.436 195.275 293.693 194.379 295.208 193.987C296.695 193.603 298.484 193.696 300.863 194.863L301.304 193.965C298.747 192.711 296.713 192.566 294.958 193.019C293.232 193.465 291.828 194.481 290.534 195.411L291.118 196.223ZM290.766 196.476C290.883 196.392 291.001 196.307 291.118 196.223L290.534 195.411C290.417 195.495 290.301 195.579 290.185 195.662L290.766 196.476ZM293.787 208.748C290.219 207.219 288.869 204.59 288.699 202.129C288.613 200.886 288.828 199.68 289.224 198.674C289.622 197.66 290.187 196.889 290.766 196.476L290.185 195.662C289.401 196.222 288.737 197.178 288.293 198.308C287.846 199.446 287.605 200.801 287.701 202.198C287.896 205.018 289.467 207.985 293.393 209.667L293.787 208.748Z" fill="#9EBCD6"/>
<path d="M288.359 200.246C289.172 191.845 298.169 187.319 306.735 190.925C310.797 192.635 316.207 196.049 317.92 201.977" stroke="#9EBCD6"/>
<path d="M276.109 200.379C277.441 207.436 284.044 212.425 290.49 213.961C296.615 213.961 301.808 213.162 304.738 207.436" stroke="#9EBCD6"/>
<path d="M71.868 260.552C71.5528 261.507 70.9977 264.006 71.2998 266.357C71.6775 269.295 74.4099 272.888 78.0192 274.937C81.6285 276.986 87.146 278.075 91.1692 272.188M104.099 248.208C100.815 255.195 98.5227 259.023 97.5874 260.671M95.8296 259.174C93.5863 257.617 89.2948 257.235 87.0115 260.296C84.1575 264.123 85.3431 266.839 87.3366 269.332C89.3301 271.825 94.8475 272.915 97.1169 270.118C99.3864 267.321 101.209 262.909 95.8296 259.174ZM78.5909 248.708C76.2362 248.052 73.8262 248.454 71.543 251.516C68.689 255.343 70.3902 258.351 73.1916 260.622C75.993 262.893 79.448 262.812 81.4251 260.53C83.4022 258.248 85.8786 251.483 78.5909 248.708Z" stroke="#9EBCD6" stroke-linecap="round"/>
<path d="M78.0775 248.458C80.4223 244.327 81.8879 241.745 85.0428 237.391M91.1771 242.239C88.8322 246.37 83.5019 244.697 81.434 243.523C88.6715 247.632 86.3488 253.153 83.8494 255.148" stroke="#9EBCD6" stroke-linecap="round"/>
<path d="M97.0623 244.88C96.2555 246.7 97.6801 252.482 100.73 254.76C95.803 251.963 88.8483 254.569 88.9211 258.027" stroke="#9EBCD6" stroke-linecap="round"/>
<path d="M79.5002 258C79.0002 258.5 78.5002 258.5 77.729 257.741C76.9578 256.982 78.0002 256.5 78.0002 256.5C78.6668 256.333 80.0002 257.5 79.5002 258Z" stroke="#9EBCD6" stroke-linecap="round"/>
<path d="M94.694 267.747C94.194 268.247 93.694 268.247 92.9228 267.487C92.1516 266.728 93.194 266.247 93.194 266.247C93.8607 266.08 95.194 267.247 94.694 267.747Z" stroke="#9EBCD6" stroke-linecap="round"/>
<path d="M80.0342 270.673C80.381 271.185 81.3941 271.847 82.8535 271.769" stroke="#9EBCD6" stroke-linecap="round"/>
<path d="M218.369 311.626C208.134 313.646 190.051 316.35 175.29 316.956C182.209 317.966 185.093 318.976 179.615 320.743C186.534 320.743 184.804 322.888 182.209 323.898C186.102 323.898 188.408 324.656 186.534 326.044C191.366 325.923 197.124 324.37 202.356 322.499" stroke="#9EBCD6" stroke-linecap="round" stroke-linejoin="round"/>
<path d="M194.519 331.538C188.832 335.104 174.828 343.017 164.302 346.14C167.372 347.506 191.772 342.381 199.001 337.755" stroke="#9EBCD6" stroke-linecap="round" stroke-linejoin="round"/>
<path d="M192.981 328.369C186.738 331.633 171.406 338.803 160.023 341.372C160.642 342.436 168.792 342.019 177.74 340.799" stroke="#9EBCD6" stroke-linecap="round" stroke-linejoin="round"/>
<path d="M227.194 313.177C232.977 307.827 239.339 300.02 245.768 289.219C244.309 287.459 245.998 283.095 245.265 283.014C238.398 294.459 228.467 304.727 225.236 307.62C224.404 308.366 224.801 311.418 224.664 312.198" stroke="#9EBCD6" stroke-linecap="round"/>
<path d="M217.218 295.827C219.001 296.02 222.914 296.637 224.302 297.562C225.69 298.487 224.88 300.261 224.302 301.032L227.772 304.646" stroke="#9EBCD6" stroke-linecap="round"/>
<path d="M222.279 304.751C222.781 304.888 224.091 304.396 224.295 303.885" stroke="#9EBCD6" stroke-linecap="round"/>
<path d="M219.853 298.146L218.374 299.763" stroke="#9EBCD6" stroke-linecap="round"/>
<path d="M209.555 305.369C211.868 307.538 215.628 309.659 217.652 309.851C211.001 300.598 215.338 297.707 217.362 295.827C217.362 294.671 219.225 289.079 215.049 293.08C211.579 296.405 206.205 302.228 209.555 305.369Z" stroke="#9EBCD6" stroke-linecap="round"/>
<path d="M202.346 338.282C201.586 338.618 200.853 338.925 200.158 339.201C198.076 336.887 194.423 331.779 192.495 328.502C200.881 324.164 208.543 318.67 218.808 311.442C220.775 312.482 223.869 313.321 226.326 311.442C227.772 312.116 227.483 318.092 224.013 323.297C221.832 326.569 215.418 330.886 210.358 333.944" stroke="#9EBCD6" stroke-linecap="round"/>
<path d="M201.202 340.811C211.9 333.871 218.663 326.911 222.856 320.55C226.326 314.536 221.989 311.731 219.386 315.201C216.784 318.67 213.617 326.564 202.918 334.516C203.063 335.239 202.918 337.377 201.202 340.811Z" stroke="#9EBCD6" stroke-linecap="round"/>
<path d="M282.747 121.89C282.378 122.163 282.003 122.43 281.619 122.676C281.164 122.969 280.704 123.262 280.238 123.535C279.974 123.687 279.707 123.828 279.44 123.972C278.907 124.265 278.364 124.523 277.816 124.763C276.398 125.396 274.927 125.9 273.419 126.27C272.297 126.539 271.159 126.735 270.012 126.856C265.431 127.34 260.805 126.598 256.605 124.707C252.405 122.817 248.782 119.845 246.107 116.095C243.432 112.346 241.8 107.953 241.379 103.367C240.957 98.7802 241.761 94.1639 243.708 89.9898C243.984 89.4034 244.277 88.8171 244.588 88.2688C244.673 88.1134 244.761 87.9551 244.855 87.7997C245.03 87.5066 245.206 87.2134 245.391 86.9202C246.048 85.9001 246.777 84.9282 247.572 84.0119C247.592 83.9844 247.614 83.958 247.637 83.9328C248.009 83.5106 248.39 83.0972 248.792 82.6897C249.111 82.3643 249.44 82.0535 249.78 81.7457C250.073 81.4877 250.366 81.2326 250.659 80.9805C251.023 80.6873 251.389 80.3942 251.771 80.101C252.336 79.6817 252.917 79.2889 253.506 78.9283C253.782 78.7524 254.069 78.5823 254.35 78.424C254.444 78.3683 254.535 78.3155 254.644 78.2657C254.752 78.2159 254.887 78.1308 255.007 78.0693C255.441 77.8347 255.887 77.6178 256.329 77.4038C257.1 77.049 257.883 76.7265 258.675 76.4539C259.967 75.996 261.294 75.6468 262.644 75.4102C263.873 75.188 265.117 75.0557 266.365 75.0144C270.828 74.8659 275.254 75.8683 279.217 77.9253C283.181 79.9823 286.548 83.0246 288.996 86.7596C291.443 90.4946 292.888 94.7965 293.192 99.2516C293.496 103.707 292.648 108.165 290.731 112.198C290.678 112.312 290.622 112.426 290.566 112.544L290.405 112.857C290.279 113.104 290.153 113.347 290.018 113.582C289.535 114.459 289 115.306 288.417 116.12C288.353 116.202 288.294 116.288 288.23 116.367C287.737 117.053 287.205 117.711 286.638 118.337C286.151 118.882 285.632 119.416 285.093 119.92C284.767 120.231 284.43 120.53 284.081 120.826C283.653 121.193 283.209 121.548 282.747 121.89Z" stroke="#9EBCD6"/>
<path d="M269.001 100.296C268.918 100.328 268.834 100.358 268.749 100.384C268.648 100.416 268.546 100.447 268.444 100.475C268.386 100.49 268.328 100.503 268.27 100.517C268.153 100.546 268.036 100.568 267.918 100.587C267.613 100.639 267.301 100.667 266.986 100.671C266.751 100.673 266.516 100.663 266.282 100.639C265.344 100.546 264.436 100.248 263.65 99.7743C262.863 99.3008 262.227 98.6695 261.806 97.9449C261.385 97.2202 261.194 96.4281 261.252 95.6497C261.311 94.8712 261.617 94.1342 262.14 93.514C262.213 93.427 262.291 93.3406 262.371 93.2613C262.393 93.2386 262.415 93.2157 262.439 93.1934C262.484 93.1513 262.528 93.1092 262.574 93.0675C262.739 92.9228 262.916 92.7888 263.105 92.6666C263.109 92.6628 263.115 92.6592 263.12 92.6559C263.208 92.5998 263.298 92.5455 263.391 92.493C263.466 92.451 263.542 92.4118 263.62 92.3735C263.687 92.3417 263.754 92.3104 263.821 92.2796C263.903 92.2446 263.986 92.2098 264.072 92.1755C264.199 92.1272 264.328 92.0839 264.458 92.0463C264.519 92.0275 264.582 92.0101 264.644 91.9944C264.665 91.9887 264.684 91.9834 264.708 91.9792C264.731 91.975 264.761 91.966 264.787 91.9603C264.882 91.9378 264.978 91.9186 265.074 91.8998C265.241 91.87 265.408 91.8461 265.576 91.8307C265.85 91.8035 266.129 91.7958 266.408 91.8076C266.662 91.8172 266.917 91.8423 267.169 91.8827C268.072 92.0271 268.932 92.3614 269.665 92.8536C270.399 93.3457 270.982 93.979 271.358 94.6927C271.733 95.4063 271.89 96.1762 271.812 96.9284C271.733 97.6805 271.423 98.3896 270.911 98.9874C270.897 99.0044 270.882 99.0213 270.867 99.0387L270.825 99.0847C270.792 99.1209 270.759 99.1565 270.724 99.1904C270.6 99.3179 270.466 99.4386 270.323 99.5519C270.307 99.5631 270.293 99.575 270.277 99.5857C270.156 99.6811 270.029 99.7703 269.895 99.8529C269.78 99.9251 269.659 99.9942 269.535 100.058C269.459 100.097 269.382 100.134 269.303 100.17C269.205 100.215 269.104 100.257 269.001 100.296Z" stroke="#9EBCD6"/>
<path d="M261.507 121.473C261.457 121.492 261.407 121.51 261.356 121.525C261.296 121.544 261.235 121.563 261.173 121.58C261.139 121.589 261.104 121.597 261.069 121.605C260.999 121.622 260.929 121.636 260.858 121.647C260.675 121.678 260.488 121.695 260.299 121.697C260.159 121.699 260.018 121.692 259.877 121.679C259.315 121.623 258.77 121.444 258.299 121.16C257.827 120.876 257.446 120.497 257.193 120.063C256.941 119.629 256.826 119.154 256.861 118.687C256.897 118.22 257.08 117.778 257.394 117.407C257.438 117.354 257.484 117.303 257.532 117.255C257.545 117.241 257.559 117.228 257.573 117.214C257.6 117.189 257.626 117.164 257.654 117.139C257.753 117.052 257.859 116.972 257.972 116.898C257.975 116.896 257.978 116.894 257.981 116.892C258.034 116.858 258.088 116.826 258.144 116.794C258.189 116.769 258.234 116.746 258.281 116.723C258.321 116.704 258.361 116.685 258.402 116.666C258.451 116.645 258.501 116.625 258.552 116.604C258.628 116.575 258.706 116.549 258.784 116.527C258.82 116.515 258.858 116.505 258.895 116.495C258.907 116.492 258.919 116.489 258.933 116.486C258.947 116.484 258.965 116.478 258.981 116.475C259.038 116.461 259.095 116.45 259.153 116.439C259.253 116.421 259.353 116.407 259.454 116.397C259.618 116.381 259.785 116.376 259.953 116.383C260.105 116.389 260.258 116.404 260.409 116.428C260.95 116.515 261.466 116.715 261.906 117.011C262.345 117.306 262.695 117.685 262.92 118.113C263.145 118.541 263.239 119.003 263.192 119.454C263.145 119.905 262.959 120.33 262.652 120.688C262.644 120.698 262.635 120.708 262.626 120.719L262.601 120.746C262.581 120.768 262.561 120.789 262.54 120.81C262.466 120.886 262.385 120.959 262.3 121.026C262.29 121.033 262.282 121.04 262.272 121.047C262.2 121.104 262.123 121.157 262.043 121.207C261.974 121.25 261.902 121.292 261.827 121.33C261.782 121.353 261.736 121.375 261.688 121.397C261.629 121.424 261.569 121.449 261.507 121.473Z" stroke="#9EBCD6"/>
<path d="M256.586 93.0264C256.543 93.0427 256.499 93.0584 256.455 93.0721C256.403 93.0885 256.35 93.1048 256.296 93.1192C256.266 93.1272 256.236 93.1341 256.206 93.1413C256.145 93.1562 256.084 93.1678 256.023 93.1778C255.864 93.2046 255.701 93.2192 255.537 93.2214C255.415 93.2226 255.293 93.2171 255.171 93.205C254.683 93.1565 254.21 93.0011 253.801 92.7547C253.392 92.5084 253.061 92.1798 252.842 91.8027C252.622 91.4255 252.523 91.0133 252.553 90.6082C252.584 90.2031 252.743 89.8195 253.015 89.4968C253.054 89.4515 253.094 89.4065 253.136 89.3652C253.147 89.3535 253.159 89.3415 253.171 89.3299C253.194 89.308 253.218 89.2861 253.242 89.2644C253.327 89.1891 253.419 89.1194 253.518 89.0558C253.52 89.0538 253.523 89.0519 253.526 89.0502C253.571 89.021 253.618 88.9927 253.667 88.9654C253.706 88.9435 253.745 88.9231 253.786 88.9032C253.821 88.8867 253.855 88.8704 253.89 88.8543C253.933 88.8361 253.976 88.818 254.021 88.8002C254.087 88.775 254.154 88.7525 254.222 88.7329C254.254 88.7231 254.287 88.7141 254.319 88.7059C254.329 88.703 254.34 88.7002 254.352 88.698C254.364 88.6958 254.38 88.6911 254.393 88.6882C254.442 88.6764 254.493 88.6665 254.543 88.6567C254.629 88.6412 254.716 88.6287 254.804 88.6207C254.947 88.6066 255.091 88.6026 255.237 88.6087C255.369 88.6137 255.501 88.6268 255.633 88.6478C256.103 88.7229 256.55 88.8969 256.932 89.153C257.314 89.4091 257.617 89.7388 257.813 90.1102C258.008 90.4816 258.09 90.8822 258.049 91.2737C258.008 91.6651 257.847 92.0341 257.58 92.3452C257.573 92.3541 257.565 92.3629 257.557 92.3719L257.535 92.3959C257.518 92.4147 257.501 92.4333 257.483 92.4509C257.418 92.5173 257.348 92.5801 257.274 92.639C257.266 92.6448 257.258 92.651 257.25 92.6566C257.187 92.7063 257.121 92.7527 257.051 92.7957C256.992 92.8333 256.929 92.8692 256.864 92.9022C256.825 92.9227 256.784 92.9419 256.743 92.9606C256.692 92.984 256.64 93.0059 256.586 93.0264Z" stroke="#9EBCD6"/>
<path d="M274.31 87.1157C274.252 87.1366 274.194 87.1567 274.134 87.1742C274.064 87.1951 273.993 87.2159 273.922 87.2342C273.881 87.2443 273.841 87.2531 273.8 87.2622C273.719 87.281 273.637 87.2956 273.555 87.3081C273.342 87.3418 273.124 87.3595 272.904 87.3611C272.74 87.3615 272.576 87.3534 272.411 87.3367C271.756 87.2697 271.12 87.0637 270.569 86.7398C270.018 86.4159 269.57 85.9857 269.273 85.4932C268.976 85.0008 268.839 84.4636 268.877 83.9367C268.914 83.4098 269.125 82.912 269.488 82.4943C269.539 82.4356 269.593 82.3775 269.648 82.3241C269.663 82.3089 269.679 82.2934 269.695 82.2784C269.726 82.2501 269.757 82.2218 269.79 82.1937C269.904 82.0964 270.027 82.0065 270.158 81.9245C270.162 81.9219 270.165 81.9195 270.169 81.9173C270.23 81.8797 270.293 81.8433 270.358 81.8081C270.41 81.78 270.463 81.7538 270.517 81.7282C270.564 81.7069 270.61 81.686 270.657 81.6654C270.714 81.6421 270.772 81.6188 270.832 81.596C270.921 81.5638 271.011 81.535 271.101 81.5101C271.144 81.4976 271.188 81.4861 271.231 81.4758C271.245 81.472 271.259 81.4685 271.276 81.4657C271.292 81.463 271.313 81.457 271.331 81.4533C271.397 81.4384 271.464 81.4258 271.531 81.4135C271.647 81.394 271.764 81.3785 271.882 81.3688C272.073 81.3516 272.268 81.3475 272.463 81.3567C272.64 81.3642 272.818 81.3823 272.995 81.4107C273.626 81.5123 274.229 81.7423 274.743 82.0786C275.258 82.415 275.667 82.8463 275.933 83.3311C276.199 83.8159 276.311 84.338 276.26 84.847C276.208 85.356 275.994 85.8348 275.639 86.2374C275.629 86.2489 275.619 86.2603 275.609 86.272L275.579 86.303C275.556 86.3273 275.533 86.3514 275.51 86.3742C275.423 86.46 275.33 86.5411 275.23 86.6172C275.22 86.6247 275.21 86.6328 275.199 86.6399C275.115 86.704 275.026 86.7639 274.933 86.8193C274.853 86.8677 274.768 86.914 274.682 86.9564C274.629 86.9827 274.576 87.0074 274.52 87.0314C274.452 87.0614 274.382 87.0895 274.31 87.1157Z" stroke="#9EBCD6"/>
<path d="M282.513 96.2672C282.47 96.2835 282.426 96.2992 282.382 96.313C282.329 96.3294 282.276 96.3457 282.223 96.3601C282.193 96.368 282.163 96.375 282.132 96.3821C282.072 96.397 282.011 96.4086 281.949 96.4186C281.791 96.4454 281.628 96.46 281.464 96.4623C281.342 96.4634 281.22 96.4579 281.098 96.4458C280.61 96.3973 280.137 96.2419 279.728 95.9956C279.319 95.7492 278.988 95.4206 278.768 95.0435C278.549 94.6664 278.45 94.2542 278.48 93.849C278.511 93.4439 278.67 93.0603 278.942 92.7376C278.981 92.6923 279.021 92.6473 279.062 92.606C279.074 92.5943 279.086 92.5823 279.098 92.5707C279.121 92.5488 279.144 92.5269 279.168 92.5052C279.254 92.4299 279.346 92.3602 279.444 92.2966C279.447 92.2946 279.449 92.2927 279.452 92.291C279.498 92.2618 279.545 92.2336 279.594 92.2062C279.632 92.1844 279.672 92.164 279.712 92.144C279.747 92.1275 279.782 92.1112 279.817 92.0952C279.86 92.077 279.903 92.0588 279.948 92.041C280.014 92.0159 280.081 91.9933 280.149 91.9737C280.18 91.9639 280.213 91.9549 280.245 91.9467C280.256 91.9438 280.266 91.941 280.279 91.9388C280.291 91.9367 280.306 91.932 280.32 91.929C280.369 91.9173 280.419 91.9073 280.469 91.8975C280.556 91.882 280.643 91.8695 280.731 91.8615C280.873 91.8474 281.018 91.8434 281.163 91.8495C281.296 91.8545 281.428 91.8676 281.56 91.8886C282.03 91.9638 282.477 92.1377 282.859 92.3939C283.24 92.65 283.544 92.9796 283.739 93.351C283.935 93.7224 284.016 94.1231 283.976 94.5145C283.935 94.9059 283.774 95.275 283.507 95.586C283.5 95.5949 283.492 95.6037 283.484 95.6127L283.462 95.6367C283.445 95.6555 283.428 95.6741 283.41 95.6917C283.345 95.7581 283.275 95.8209 283.201 95.8798C283.193 95.8857 283.185 95.8919 283.177 95.8974C283.114 95.9471 283.048 95.9935 282.978 96.0365C282.918 96.0741 282.855 96.11 282.791 96.143C282.751 96.1635 282.711 96.1827 282.67 96.2015C282.619 96.2248 282.567 96.2467 282.513 96.2672Z" stroke="#9EBCD6"/>
<path d="M281.32 107.053C281.263 107.075 281.206 107.095 281.148 107.113C281.079 107.135 281.009 107.156 280.939 107.175C280.9 107.186 280.86 107.195 280.82 107.204C280.74 107.224 280.66 107.239 280.58 107.252C280.371 107.287 280.158 107.306 279.943 107.309C279.782 107.311 279.622 107.304 279.461 107.288C278.821 107.224 278.2 107.02 277.663 106.697C277.125 106.373 276.69 105.942 276.403 105.446C276.115 104.951 275.984 104.41 276.024 103.878C276.064 103.346 276.274 102.842 276.631 102.418C276.681 102.359 276.734 102.3 276.789 102.246C276.804 102.23 276.819 102.214 276.835 102.199C276.866 102.17 276.896 102.142 276.928 102.113C277.04 102.014 277.161 101.923 277.29 101.839C277.294 101.837 277.297 101.834 277.301 101.832C277.361 101.794 277.422 101.756 277.486 101.721C277.537 101.692 277.589 101.665 277.642 101.639C277.688 101.617 277.734 101.596 277.78 101.575C277.836 101.551 277.893 101.527 277.951 101.504C278.038 101.471 278.126 101.441 278.215 101.415C278.257 101.402 278.3 101.39 278.342 101.38C278.356 101.376 278.37 101.372 278.386 101.369C278.402 101.367 278.422 101.36 278.44 101.356C278.505 101.341 278.571 101.328 278.636 101.315C278.75 101.295 278.864 101.278 278.979 101.268C279.167 101.249 279.357 101.244 279.548 101.252C279.721 101.259 279.895 101.276 280.068 101.303C280.685 101.402 281.273 101.631 281.774 101.967C282.275 102.303 282.673 102.736 282.93 103.224C283.187 103.711 283.294 104.238 283.241 104.752C283.187 105.266 282.975 105.75 282.625 106.159C282.615 106.17 282.605 106.182 282.595 106.194L282.566 106.225C282.544 106.25 282.521 106.274 282.498 106.298C282.412 106.385 282.321 106.467 282.223 106.545C282.212 106.552 282.202 106.56 282.192 106.568C282.109 106.633 282.022 106.694 281.931 106.75C281.852 106.8 281.769 106.847 281.684 106.89C281.633 106.917 281.58 106.942 281.526 106.967C281.459 106.998 281.39 107.026 281.32 107.053Z" stroke="#9EBCD6"/>
<path d="M293.038 104.341C296.902 107 298.925 109.43 298.368 111.051C297.811 112.673 293.901 113.315 289.353 113.074C283.118 112.761 274.867 111.669 265.022 108.289C255.177 104.909 246.76 100.848 241.647 97.2861C237.892 94.6651 235.904 91.4087 236.476 89.7494C237.047 88.09 240.152 87.4509 244.869 87.7441M292.657 106.522C294.184 107.771 294.917 108.826 294.656 109.588C294.395 110.351 293.228 110.714 291.346 110.761C286.433 110.911 276.667 108.82 265.811 105.085C254.954 101.35 246.039 97.0201 242.231 93.8802C240.765 92.6606 240.049 91.6228 240.307 90.8752C240.565 90.1276 241.823 89.7171 243.826 89.7025M293.135 98.5094C293.114 98.2397 293.082 97.9671 293.044 97.6915C302.839 103.558 308.425 107.56 307.022 114.03C305.619 120.5 281.716 121.9 262.441 114.929C243.166 107.957 222.512 97.6915 227.856 86.7824C229.34 82.4786 237.616 81.0949 248.982 82.5168M293.249 101.509C293.249 101.611 293.249 101.714 293.249 101.816C300.512 106.522 302.305 107.964 302.305 112.078C302.795 117.657 281.012 117.714 263.369 111.214C245.727 104.714 229.09 96.0675 232.77 88.1486C233.649 85.6156 238.789 84.827 246.285 85.642" stroke="#9EBCD6"/>
<path d="M290.302 46.9636C295.099 42.9699 302.687 35.7775 307.293 30.4743C302.56 33.7634 297.635 37.024 293.152 39.1948C292.642 37.1238 292.663 34.6066 293.172 31.1116C288.628 34.8486 283.845 38.4452 279.149 43.1049C278.92 41.7058 278.659 38.5166 278.876 35.6083C272.783 40.796 269.053 44.7588 264.107 50.5366C268.648 47.2191 272.121 45.2137 275.306 43.3753C274.268 46.897 274.337 50.0578 274.558 52.296C277.695 50.3456 284.754 44.4609 288.774 40.3311C288.992 42.9887 289.643 45.3957 290.302 46.9636Z" stroke="#9EBCD6" stroke-linejoin="round"/>
<path d="M36.8127 97.0973C40.8598 93.7528 46.9181 87.711 50.2245 83.2386C45.9737 85.9791 41.4867 88.6918 37.0868 90.4764C35.6702 88.6889 34.701 86.5276 33.9183 83.5353L20.4564 101.397C23.3648 99.7779 29.3186 94.8497 32.4012 91.3745C33.706 93.6606 35.4209 95.7392 36.8127 97.0973Z" stroke="#9EBCD6" stroke-linejoin="round"/>
<path d="M355.192 223.585C355.907 218.384 356.277 209.836 355.684 204.306C354.41 209.2 352.943 214.234 350.912 218.526C348.659 218.169 346.483 217.234 343.881 215.562L346.062 237.822C347.107 234.661 348.154 227.004 348.071 222.359C350.579 223.159 353.248 223.528 355.192 223.585Z" stroke="#9EBCD6" stroke-linejoin="round"/>
<path d="M137.461 349.513C139.904 354.16 144.574 361.33 148.273 365.484C146.463 360.761 144.729 355.813 143.885 351.14C145.925 350.12 148.239 349.615 151.329 349.464L136.61 332.622C137.597 335.801 141.199 342.64 143.968 346.37C141.462 347.178 139.076 348.43 137.461 349.513Z" stroke="#9EBCD6" stroke-linejoin="round"/>
<path d="M246.999 238.777C251.193 234.831 257.624 228.404 265.353 221.878C260.321 224.226 256.722 226.404 252.541 228.597C253.506 225.472 254.18 222.355 254.819 218.092C249.751 222.059 244.456 226.436 240.304 230.65C240.928 228.141 241.574 225.766 241.779 222.457C236.406 228.184 232.574 231.649 227.044 237.313C230.863 235.601 233.923 233.706 236.691 231.818C236.286 234.793 235.754 236.964 234.903 239.883C239.14 236.206 243.285 232.869 248.822 229.093C248.527 232.7 247.733 235.859 247.022 238.684L246.999 238.777Z" stroke="#9EBCD6" stroke-linejoin="round"/>
<path d="M258.092 165.447C258.784 164.953 260.117 164.49 259.92 166.592C259.674 169.221 255.577 174.061 254.809 175.526" stroke="#9EBCD6" stroke-linejoin="round"/>
<path d="M226.837 168.983C226.758 167.444 226.618 162.92 226.825 159.407C227.083 155.016 229.159 157.994 228.932 158.49" stroke="#9EBCD6" stroke-linejoin="round"/>
<path d="M247.929 145.412C252.967 146.774 259.856 153.667 259.539 157.375C259.223 161.084 255.842 178.34 250.59 182.213C245.338 186.087 239.098 187.887 236.388 188.389C234.306 186.592 229.771 181.84 227.195 175.855C224.62 169.87 230.39 153.283 231.983 149.924C233.568 146.582 242.883 144.11 247.926 145.423C247.927 145.419 247.928 145.415 247.929 145.412Z" stroke="#9EBCD6" stroke-linejoin="round"/>
<path d="M235.477 175.785C235.102 175.083 234.297 174.274 233.942 173.957C234.996 174.463 235.467 174.679 237.026 174.791C238.584 174.904 238.999 175.325 240.397 175.703C241.795 176.081 242.632 176.087 244.154 176.499C245.371 176.828 246.352 176.799 246.691 176.744C246.238 176.842 245.131 177.16 244.328 177.649C243.324 178.26 241.72 179.459 239.223 178.739C236.726 178.02 235.946 176.662 235.477 175.785Z" stroke="#9EBCD6" stroke-linejoin="round"/>
<path d="M231.373 166.158C229.09 164.94 230.363 159.78 231.284 157.352C238.235 158.279 250.893 161.862 256.516 163.912C255.86 166.338 254.621 171.528 251.001 171.467C246.477 171.39 244.56 168.798 244.347 166.975C244.134 165.152 243.81 163.104 243.212 163.031C242.614 162.957 242.188 163.699 240.258 166.266C238.328 168.833 234.227 167.68 231.373 166.158Z" stroke="#9EBCD6" stroke-linejoin="round"/>
<path d="M257.021 169.305C256.997 169.309 256.974 169.315 256.952 169.321C256.448 169.464 255.364 170.379 253.821 173.679C252.301 176.93 250.768 177.562 249.423 178.117C249.402 178.126 249.381 178.134 249.361 178.142C248.001 178.704 245.454 179.874 243.546 181.774C242.237 183.078 241.091 182.808 239.897 182.526C239.35 182.397 238.792 182.265 238.204 182.281C236.331 182.332 234.407 180.511 234.019 179.198C233.762 178.33 232.815 177.315 231.716 176.14C231.153 175.537 230.55 174.891 229.98 174.202C229.205 173.264 229.005 170.018 228.817 166.966C228.745 165.793 228.178 162.485 228.077 161.512" stroke="#9EBCD6" stroke-linejoin="round"/>
<path d="M255.358 163.872L249.809 170.643M253.453 163.356L250.934 166.485M240.968 160.723L235.779 166.848M239.423 159.562L236.016 163.566" stroke="#9EBCD6" stroke-linecap="round"/>
<path d="M239.285 172.443C240.052 172.929 241.784 173.788 242.576 173.333" stroke="#9EBCD6" stroke-linecap="round"/>
<path d="M383.5 170C392 165.667 412 155 424 147" stroke="#9EBCD6"/>
<path d="M375 184C379.617 181.551 390.481 175.522 397 171" stroke="#9EBCD6"/>
<path d="M229.5 358C238 353.667 258 343 270 335" stroke="#9EBCD6"/>
<path d="M221 372C225.617 369.551 236.481 363.522 243 359" stroke="#9EBCD6"/>
<path d="M-16.5 170C-8 165.667 12 155 24 147" stroke="#9EBCD6"/>
<path d="M272.239 247.689L275.075 250.525C277.092 252.542 283.324 259.831 286.232 263.275M258.897 261.032L262.266 264.401C259.198 266.669 256.914 271.075 262.396 273.604C265.864 275.203 270.399 273.868 271.2 273.334C272.266 274.401 273.594 275.638 274.133 275.467C278.629 274.048 286.632 265.03 286.232 263.275M286.232 263.275L286.275 263.326M269.2 271.067C263.73 273.87 258.423 269.737 263.866 266.001C265.779 267.914 267.692 269.674 268.629 270.537C268.933 270.817 269.134 271.002 269.2 271.067Z" stroke="#9EBCD6" stroke-linecap="round" stroke-linejoin="round"/>
<ellipse cx="265.604" cy="254.396" rx="9.43457" ry="3.39414" transform="rotate(-45 265.604 254.396)" stroke="#9EBCD6" stroke-linecap="round" stroke-linejoin="round"/>
<path d="M260.697 260.696C260.97 258.965 262.459 256.342 264.737 253.82C267.369 250.904 270.252 249.014 271.918 248.969" stroke="#9EBCD6" stroke-linecap="round" stroke-linejoin="round"/>
<path d="M58.771 341.747C61.0483 348.294 64.5782 353.361 69.5882 356.549C74.5983 359.737 76.7998 364.899 77.2742 367.082C79.7413 365.564 84.5616 362.413 84.1061 361.958C83.5368 361.389 76.7049 357.119 75.8509 354.557C74.9969 351.995 78.1282 344.024 67.3109 338.046" stroke="#9EBCD6" stroke-linecap="round" stroke-linejoin="round"/>
<path d="M66.4571 353.987C61.0484 352.943 48.3299 346.773 54.7857 332.068C59.9097 320.397 72.2451 314.324 77.2742 314.988C77.7486 312.711 79.8361 308.156 84.3908 308.156C90.0841 308.156 93.7847 306.164 101.755 316.411C109.726 326.659 116.843 331.783 112.573 336.053C108.303 340.323 106.31 338.046 105.741 336.053C105.285 334.459 106.12 333.871 106.595 333.776C106.689 334.535 107.164 336.053 108.303 336.053C109.726 336.053 111.149 335.484 111.149 333.776C111.149 332.068 103.748 324.382 101.755 323.528C99.7626 322.674 96.916 328.083 90.6534 324.951C89.7994 328.083 89.7994 328.652 90.6534 331.214C91.5074 333.776 96.062 341.462 98.9087 343.17C101.755 344.878 103.748 344.878 104.033 346.017C104.317 347.155 100.047 351.425 98.9087 350.856C97.77 350.287 94.6387 345.163 93.2154 343.17C91.792 341.177 83.8214 344.024 81.8288 336.053C80.6901 341.177 78.6975 344.593 75.5662 347.725" stroke="#9EBCD6" stroke-linecap="round" stroke-linejoin="round"/>
<path d="M82.6827 313.565C82.4929 313.66 81.4871 314.191 78.9821 315.557C75.8508 317.265 78.1281 318.119 81.8287 323.528C85.5294 328.937 86.6681 329.791 86.9527 327.798C87.2374 325.805 88.9454 323.528 88.9454 320.966M93.2154 315.557C94.5818 315.557 94.1642 316.127 93.7847 316.411M95.7773 322.389C96.5365 324.003 98.2255 328.254 98.9087 332.353C100.901 327.798 97.2007 320.966 97.4853 320.966C97.77 320.966 94.9327 320.397 95.7773 322.389Z" stroke="#9EBCD6" stroke-linecap="round" stroke-linejoin="round"/>
<path d="M86.3837 341.462C88.1865 343.075 91.8492 346.814 92.077 348.863C92.3047 350.913 94.8287 348.958 96.0623 347.725M76.1357 350.287C77.2744 352.754 80.0641 357.859 82.1137 358.542C84.6757 359.396 83.8217 360.819 82.9677 360.819" stroke="#9EBCD6" stroke-linecap="round" stroke-linejoin="round"/>
<path d="M54.501 346.301C54.6908 347.82 55.7535 351.539 58.4863 354.272C57.3476 351.425 56.4936 350.002 56.4936 348.863" stroke="#9EBCD6"/>
<path d="M337.252 42.9107C333.556 45.7476 331.006 50.201 331.004 55.6578C331.002 63.8309 338.407 69.0282 346.96 69.521C352.573 69.5193 357.186 66.5487 359.526 62.041" stroke="#9EBCD6"/>
<path d="M361.995 54.248C361.993 62.4211 355.364 68.3089 347.188 68.3114C338.236 67.4157 332.388 61.6904 332.39 53.5173C332.393 45.3442 339.762 38.7163 347.938 38.7138C356.113 38.7112 361.998 46.0749 361.995 54.248Z" stroke="#9EBCD6"/>
<path d="M339.564 47.8073C342.204 46.6493 347.424 44.7325 351.608 45.7727C356.838 47.0729 354.295 53.7276 343.235 56.1901M340.588 45.5337C342.38 50.4994 346.816 59.5062 347.772 62.9775M344.131 60.3846L351.889 57.6837" stroke="#9EBCD6" stroke-linecap="round" stroke-linejoin="round"/>
<path d="M331.822 28.806C331.822 28.806 333.927 33.381 336.379 37.4467M336.933 28.4464C338.632 32.6347 338.409 32.468 340.389 37.1609M340.632 26C341.643 28.4654 342.151 30.9277 342.922 33.1264" stroke="#9EBCD6" stroke-linecap="round"/>
<path d="M44.7265 205.545C41.6818 212.647 33.7298 215.29 26.6252 212.24C18.6269 208.808 16.2294 200.962 19.2741 193.861" stroke="#9EBCD6"/>
<path d="M45.7009 203.597C42.6561 210.698 34.7041 213.341 27.5995 210.292C20.2484 206.381 17.2037 199.014 20.2484 191.912C23.2932 184.81 32.1641 181.801 39.2687 184.85C46.3733 187.899 48.7456 196.495 45.7009 203.597Z" stroke="#9EBCD6"/>
<path d="M28.415 188.249C25.1072 193.039 24.6397 203.15 29.7382 205.667C34.5897 208.062 40.5436 205.45 39 201.313C37.4564 197.176 33.046 197.829 30.8407 195.216C28.6355 192.603 32.3843 186.725 39 190.862" stroke="#9EBCD6" stroke-linecap="round"/>
<path d="M30.5515 169.868C30.5515 169.868 31.8853 174.516 32.166 179.781M22.9804 167C24.4064 171.918 25.6511 174.707 27.1431 180.265M19.25 172.557C20.0743 175.459 22.0655 179.908 22.9804 182.416" stroke="#9EBCD6" stroke-linecap="round"/>
<path d="M90.5628 123.082C87.5222 130.319 78.9454 134.695 71.8504 131.588C63.863 128.09 60.6802 119.734 64.8108 110.982" stroke="#9EBCD6"/>
<path d="M90.7266 122.909C87.6228 130.149 79.5165 132.842 72.2741 129.734C64.7804 125.747 61.6766 118.237 64.7804 110.997C67.8842 103.758 76.9272 100.69 84.1696 103.799C91.412 106.907 93.8304 115.669 90.7266 122.909Z" stroke="#9EBCD6"/>
<path d="M75.3522 90.6638C75.3522 90.6638 76.7294 94.5199 76.9291 98.4216M69.9589 89C70.9734 92.6444 71.7652 95.9246 72.8267 100.043M65.8862 92.5549C66.4727 94.7051 67.1236 96.5633 67.7745 98.4216" stroke="#9EBCD6" stroke-linecap="round"/>
<path d="M77.0503 106.905C76.7232 111.984 76.3922 122.115 75.9009 125.551" stroke="#9EBCD6" stroke-linecap="round"/>
<path d="M80.2603 106.85C79.2494 112.636 78.8055 122.65 78.3143 126.086" stroke="#9EBCD6" stroke-linecap="round"/>
<path d="M84.644 112.206C84.8791 112.351 85.1871 112.278 85.3321 112.043C85.477 111.808 85.404 111.5 85.1689 111.355L84.644 112.206ZM85.1689 111.355C82.5624 109.747 80.2936 108.873 78.4186 108.533C76.5501 108.194 75.0376 108.38 73.9834 108.944C72.9127 109.516 72.324 110.482 72.4014 111.583C72.4769 112.656 73.1767 113.735 74.4071 114.61L74.9869 113.795C73.9087 113.028 73.4467 112.191 73.399 111.513C73.3531 110.861 73.6798 110.24 74.4548 109.826C75.2464 109.402 76.5101 109.203 78.2401 109.517C79.9636 109.83 82.1156 110.647 84.644 112.206L85.1689 111.355ZM74.4071 114.61C76.7625 116.286 78.3526 116.885 79.6191 117.465C80.8452 118.027 81.7896 118.574 82.9904 120.162L83.788 119.559C82.4627 117.806 81.3696 117.167 80.0353 116.556C78.7415 115.964 77.2486 115.405 74.9869 113.795L74.4071 114.61ZM82.9904 120.162C83.2555 120.512 83.3628 120.834 83.3719 121.115C83.3809 121.395 83.2938 121.677 83.1004 121.952C82.7035 122.517 81.8652 123.039 80.6532 123.313C78.2519 123.858 74.6142 123.37 71.07 120.678L70.465 121.474C74.2224 124.329 78.1586 124.904 80.8742 124.289C82.2208 123.984 83.3267 123.37 83.9187 122.527C84.2197 122.098 84.3882 121.608 84.3714 121.083C84.3545 120.559 84.1545 120.043 83.788 119.559L82.9904 120.162Z" fill="#9EBCD6"/>
<path d="M325.002 355.508C320.92 365.224 309.406 371.099 299.881 366.927C289.158 362.231 284.886 351.013 290.431 339.264" stroke="#9EBCD6"/>
<path d="M325.222 355.276C321.055 364.995 310.173 368.611 300.45 364.438C290.39 359.086 286.223 349.004 290.39 339.285C294.557 329.566 306.697 325.448 316.419 329.621C326.142 333.794 329.389 345.557 325.222 355.276Z" stroke="#9EBCD6"/>
<path d="M296.277 343.19C302.405 346.211 314.794 351.84 318.801 354.219" stroke="#9EBCD6" stroke-linecap="round"/>
<path d="M297.862 339.182C304.515 343.415 316.701 349.124 320.707 351.502" stroke="#9EBCD6" stroke-linecap="round"/>
<path d="M306.66 336.367C306.884 336.206 306.935 335.893 306.773 335.669C306.612 335.445 306.299 335.395 306.075 335.556L306.66 336.367ZM306.075 335.556C302.753 337.95 300.517 340.298 299.144 342.425C297.774 344.547 297.244 346.479 297.395 348.026C297.547 349.591 298.405 350.754 299.736 351.2C301.041 351.638 302.685 351.348 304.377 350.29L303.847 349.442C302.314 350.401 300.984 350.564 300.054 350.252C299.15 349.949 298.51 349.16 298.39 347.929C298.268 346.679 298.691 344.971 299.984 342.967C301.274 340.97 303.412 338.708 306.66 336.367L306.075 335.556ZM304.377 350.29C307.651 348.244 309.2 346.594 310.575 345.319C311.918 344.074 313.107 343.168 315.728 342.488L315.477 341.52C312.656 342.252 311.325 343.26 309.895 344.586C308.498 345.881 307.024 347.457 303.847 349.442L304.377 350.29ZM315.728 342.488C316.327 342.333 316.818 342.364 317.21 342.512C317.601 342.66 317.933 342.939 318.192 343.348C318.719 344.18 318.931 345.537 318.643 347.204C318.072 350.516 315.561 354.816 310.357 357.846L310.86 358.71C316.295 355.545 319.002 351.003 319.629 347.374C319.94 345.571 319.746 343.932 319.037 342.813C318.678 342.246 318.184 341.811 317.564 341.577C316.945 341.343 316.239 341.323 315.477 341.52L315.728 342.488Z" fill="#9EBCD6"/>
<path d="M176.227 147.423C173.152 147.652 169.743 149.513 167.672 151.939C163.442 156.894 163.78 163.444 169.107 168.343C173.583 172.459 180.422 171.993 184.583 168.926" stroke="#9EBCD6"/>
<path d="M187.362 166.47C183.142 171.485 176.382 172.104 171.065 167.708C165.747 163.311 165.448 156.254 169.668 151.239C173.888 146.224 181.808 145.835 186.799 149.916C191.791 153.997 191.583 161.455 187.362 166.47Z" stroke="#9EBCD6"/>
<path d="M185.098 161.319C183.478 164.842 179.8 167.929 174.762 165.178C170.753 162.989 168.568 153.152 178.821 151.329M179.382 160.846L170.416 163.809M178.012 158.283L169.325 161.439" stroke="#9EBCD6" stroke-linecap="round"/>
<path d="M196.131 141.925C196.131 141.925 193.385 145.609 190.731 148.245M193.784 136.91C191.847 139.979 190.025 142.652 187.781 146.058M187.337 138.823C186.186 140.625 185.286 142.288 184.386 143.951" stroke="#9EBCD6" stroke-linecap="round"/>
</g>
<defs>
<clipPath id="clip0_4516_68446">
<rect width="400" height="400" fill="white"/>
</clipPath>
</defs>
</svg>
