<svg width="2368" height="1870" viewBox="0 0 2368 1870" fill="none" xmlns="http://www.w3.org/2000/svg">
<path d="M668.465 1861.3L816.8 1533.48H865.625L1013.96 1861.3H953.51L920.96 1785.51H761L728.915 1861.3H668.465ZM840.515 1598.11L781.46 1738.08H900.5L841.445 1598.11H840.515Z" fill="#303030"/>
<path d="M1107.97 1861.3V1583.23H995.443V1533.48H1280.02V1583.23H1167.49V1861.3H1107.97Z" fill="#303030"/>
<path d="M1327.25 1869.21L1297.95 1825.03C1310.35 1817.9 1321.21 1809.69 1330.51 1800.39C1340.12 1790.78 1348.02 1778.84 1354.22 1764.58C1360.73 1750.01 1365.53 1732.03 1368.63 1710.64C1372.04 1689.25 1373.75 1663.37 1373.75 1632.99V1533.48H1605.32V1861.3H1545.8V1583.23H1428.62V1648.33C1428.62 1690.18 1424.59 1725.68 1416.53 1754.82C1408.78 1783.65 1397.31 1807.21 1382.12 1825.5C1366.93 1843.79 1348.64 1858.36 1327.25 1869.21Z" fill="#303030"/>
<path d="M1842.45 1865.95C1810.83 1865.95 1783.08 1858.98 1759.21 1845.03C1735.65 1831.08 1717.36 1811.55 1704.34 1786.44C1691.32 1761.02 1684.81 1731.26 1684.81 1697.16C1684.81 1662.75 1691.32 1632.99 1704.34 1607.88C1717.36 1582.77 1735.65 1563.39 1759.21 1549.75C1782.77 1535.8 1810.52 1528.83 1842.45 1528.83C1874.38 1528.83 1902.12 1535.8 1925.68 1549.75C1949.24 1563.39 1967.53 1582.77 1980.55 1607.88C1993.57 1632.99 2000.08 1662.59 2000.08 1696.69C2000.08 1731.1 1993.57 1761.02 1980.55 1786.44C1967.53 1811.55 1949.24 1831.08 1925.68 1845.03C1902.12 1858.98 1874.38 1865.95 1842.45 1865.95ZM1842.45 1814.8C1872.52 1814.8 1895.92 1804.42 1912.66 1783.65C1929.4 1762.88 1937.77 1734.05 1937.77 1697.16C1937.77 1659.96 1929.4 1631.13 1912.66 1610.67C1896.23 1590.21 1872.83 1579.98 1842.45 1579.98C1812.38 1579.98 1788.97 1590.21 1772.23 1610.67C1755.49 1631.13 1747.12 1659.96 1747.12 1697.16C1747.12 1734.05 1755.49 1762.88 1772.23 1783.65C1788.97 1804.42 1812.38 1814.8 1842.45 1814.8Z" fill="#303030"/>
<path d="M2079.21 1861.3V1533.48H2138.73V1670.19H2307.52V1533.48H2367.04V1861.3H2307.52V1719.94H2138.73V1861.3H2079.21Z" fill="#303030"/>
<path d="M242.488 0H623.56V606.196L242.488 1253.99V0Z" fill="#303030"/>
<path d="M905.966 325.205H1379.99L476.637 1861.14H0L905.966 325.205Z" fill="#FCCE01"/>
<path d="M1492.66 325.205H1967.39L1319.83 1428.96H846.998L1492.66 325.205Z" fill="#FCCE01"/>
<path d="M1967.43 325.205L2368 1428.96H1881.14L1661.96 845.821L1967.43 325.205Z" fill="#B4B8BB"/>
<path d="M1737.53 1191.96H1634.36V1293.23H1737.53V1191.96Z" fill="#303030"/>
<path d="M1605.57 1191.96H1502.39V1293.23H1605.57V1191.96Z" fill="#FCCE01"/>
<path d="M1605.57 1322.46H1502.39V1423.73H1605.57V1322.46Z" fill="#FCCE01"/>
<path d="M1737.53 1322.46H1634.36V1423.73H1737.53V1322.46Z" fill="#FCCE01"/>
</svg>
