<svg xmlns="http://www.w3.org/2000/svg">
    <symbol id="task-check" viewBox="0 0 552 512">
        <path d="M406 462H107q-33 0-57-24t-24-57V168q0-34 24-57.5T107 87V57q0-7 5-12t12-5q7 0 12 5t5 12v30h222V57q0-7 5-12t12-5q7 0 12 5t5 12v30h9q33 0 57 23.5t24 57.5v213q0 33-24 57t-57 24zm47-286v-8q0-20-14-33.5T406 121h-9v8q0 7-5 12t-12 5q-7 0-12-5t-5-12v-8H141v8q0 7-5 12t-12 5q-7 0-12-5t-5-12v-8q-19 0-33 13.5T60 168v8h393zm-47 252q19 0 33-14t14-33V210H60v171q0 19 14 33t33 14h299zm-171-44l-65-66 24-24 41 41 84-83 24 24-108 108z" fill="currentColor"/>
    </symbol>
    <symbol id="text-file" viewBox="0 0 552 512">
        <path d="M342 295H171q-7 0-12-5t-5-12q0-7 5-12t12-5h171q7 0 12 5t5 12q0 7-5 12t-12 5zm-64 85q7 0 12-5t5-12q0-7-5-12t-12-5H171q-7 0-12 5t-5 12q0 7 5 12t12 5h107zm-21 107q-95 0-112-1t-32-8q-40-21-43-67-1-17-1-155 0-137 1-154t8-32q21-40 67-43 17-1 162-1l14 1q12 4 21 13 93 93 97.5 100.5T444 159v252q-3 46-44 67-14 7-31 8t-112 1zm151-333l-92-91v40q0 27 2 34 4 15 23 17h67zM257 453q95 0 109-1 28-2 39-25 5-9 5-59V188q-60 0-72-.5t-23-5.5q-30-16-32-50-1-11-1-72h-94q-50 0-59 5-23 12-25 40-1 13-1 152 0 138 1 151.5t4 18.5q12 23 40 25 13 1 109 1z" fill="currentColor"/>
    </symbol>
    <symbol id="attach" viewBox="0 0 552 512">
        <path d="M184 463q51 0 91-37l176-172q5-5 5-12t-5-12q-5-5-12-6-7 0-12 5L251 401q-29 28-68 28-38 0-68-28-28-30-28-69t28-68L283 96q19-18 44-18t44 18q18 20 18 44t-18 44L235 320q-9 8-20 8t-19.5-8.5Q187 311 187 300t8-20l128-128q5-5 5-12 0-6-5-11.5t-12-5.5q-7 0-12 5L171 256q-18 19-18 44t18.5 44q18.5 19 43.5 19t44-19l136-136q28-31 28-68t-28-68q-29-28-68-28t-68 28L91 240q-38 40-38 92 0 53 38 93 40 38 93 38z" fill="currentColor"/>
    </symbol>
    <symbol id="arrow-right" viewBox="0 0 552 512">
        <path d="M255 425q-7 0-13-6t-6-14q0-7 5-13l117-117H106q-8 0-14-5.5T86 256q0-8 6-13.5t14-5.5h252L241 120q-5-6-5-13 0-8 6-14t13-6q7 0 14 6l149 149q6 7 6 14t-6 14L269 419q-7 6-14 6z" fill="currentColor"/>
    </symbol>
    <symbol id="close" viewBox="0 0 552 512">
        <path d="M406 423L256 274 107 423l-24-24 149-149L83 100l24-24 149 149L406 76l24 24-149 150 149 149-24 24z"  fill="currentColor"/>
    </symbol>
    <symbol id="left-panel-open" viewBox="0 -960 960 960" fill="#5f6368">
        <path d="M500-640v320l160-160-160-160ZM200-120q-33 0-56.5-23.5T120-200v-560q0-33 23.5-56.5T200-840h560q33 0 56.5 23.5T840-760v560q0 33-23.5 56.5T760-120H200Zm120-80v-560H200v560h120Zm80 0h360v-560H400v560Zm-80 0H200h120Z"/>
    </symbol>
    <symbol id="left-panel-close" viewBox="0 -960 960 960" fill="#5f6368">
        <path d="M660-320v-320L500-480l160 160ZM200-120q-33 0-56.5-23.5T120-200v-560q0-33 23.5-56.5T200-840h560q33 0 56.5 23.5T840-760v560q0 33-23.5 56.5T760-120H200Zm120-80v-560H200v560h120Zm80 0h360v-560H400v560Zm-80 0H200h120Z"/>
    </symbol>
    <symbol id="play-btn" viewBox="0 0 41 41" fill="none">
        <polygon
            points="20,10 1,20 1,0 "
            transform="translate(11.88556,10.621731)"
            fill="#fff" />
        <circle
            cx="20.5"
            cy="20.5"
            r="20"
            style="stroke:#fff;stroke-opacity:1;stroke-width:2;stroke-dasharray:none" />    
    </symbol>
    <symbol id="double-check" viewBox="0 0 16 8" fill="currentColor">
        <path
            d="m 10.3271,0.22352904 c -0.2915,-0.2947679 -0.76651,-0.2984863 -1.06259,-0.008285 L 3.71072,5.70425 1.29644,3.20487 C 1.00849,2.90476 0.53178103,2.8949 0.23169603,3.18286 c -0.3001174,0.28795 -0.309968,0.76466 -0.022017,1.06474 0.001305,0.00134 0.002577,0.00268 0.003882,0.00401 L 3.15726,7.30224 C 3.29814,7.44595 3.49068,7.52733 3.69194,7.52815 H 3.70022 C 3.89766,7.52753 4.08697,7.44938 4.22736,7.31052 L 10.3203,1.28609 c 0.2944,-0.29192996 0.2974,-0.76687896 0.0068,-1.06256096 z"
            />
        <path
            d="M 7.67557,7.30217 C 7.81609,7.44552 8.00801,7.52684 8.20875,7.52808 H 8.21703 C 8.41447,7.52746 8.60378,7.44931 8.74417,7.31045 L 14.8371,1.28602 c 0.2762,-0.31097996 0.248,-0.78693996 -0.063,-1.06311596 -0.2819,-0.2503752 -0.7055,-0.2536696 -0.9912,-0.00773 L 8.23132,5.70418 8.03326,5.49859 C 7.74534,5.19847 7.26863,5.18859 6.96851,5.47654 6.6684,5.76446 6.65851,6.24117 6.94646,6.54129 6.94777,6.54266 6.94907,6.544 6.95038,6.54533 Z"
             />    
    </symbol>   
    <symbol id="bell" viewBox="-1 0 26 24" xmlns="http://www.w3.org/2000/svg">
        <path d="M8.35179 20.2418C9.19288 21.311 10.5142 22 12 22C13.4858 22 14.8071 21.311 15.6482 20.2418C13.2264 20.57 10.7736 20.57 8.35179 20.2418Z" fill="#currentColor"/>
        <path d="M18.7491 9V9.7041C18.7491 10.5491 18.9903 11.3752 19.4422 12.0782L20.5496 13.8012C21.5612 15.3749 20.789 17.5139 19.0296 18.0116C14.4273 19.3134 9.57274 19.3134 4.97036 18.0116C3.21105 17.5139 2.43882 15.3749 3.45036 13.8012L4.5578 12.0782C5.00972 11.3752 5.25087 10.5491 5.25087 9.7041V9C5.25087 5.13401 8.27256 2 12 2C15.7274 2 18.7491 5.13401 18.7491 9Z" fill="#currentColor"/>
    </symbol>     
</svg>